<?xml version="1.0" encoding="utf-8"?>
<!DOCTYPE svg PUBLIC "-//W3C//DTD SVG 1.1//EN" "http://www.w3.org/Graphics/SVG/1.1/DTD/svg11.dtd">
<svg version="1.1"
	 id="BD_XXX_District_locator_map" sodipodi:docname="বাংলাদেশে_ময়মনসিংহ_বিভাগ.svg" inkscape:version="0.91 r13725" xmlns:sodipodi="http://sodipodi.sourceforge.net/DTD/sodipodi-0.dtd" xmlns:inkscape="http://www.inkscape.org/namespaces/inkscape" xmlns:svg="http://www.w3.org/2000/svg" xmlns:rdf="http://www.w3.org/1999/02/22-rdf-syntax-ns#" xmlns:cc="http://creativecommons.org/ns#" xmlns:dc="http://purl.org/dc/elements/1.1/"
	 xmlns="http://www.w3.org/2000/svg" xmlns:xlink="http://www.w3.org/1999/xlink" x="0px" y="0px" width="1550.242px"
	 height="2149.605px" viewBox="0 0 1550.242 2149.605" enable-background="new 0 0 1550.242 2149.605" xml:space="preserve">
<g id="g5728">
	<path id="path1881" fill="#01796F" stroke="#646464" stroke-width="0.5" d="M1418.269,2144.105c-1.313-5.254,0.646-7.355-4-12
		c-6.258-6.258,1.067-7,6-7C1422.104,2125.105,1418.415,2143.736,1418.269,2144.105z"/>
	<path id="path3168" fill="#01796F" stroke="#FFFFFF" stroke-width="1.4173" d="M115.598,791.764l3.813-8.76l-8.896-11.262
		l1.271-16.269l-7.625-8.76l1.271-10.011l25.418-7.508l15.25-7.509l-1.271-10.011l24.147,1.251l3.812-3.754l-3.812-6.257
		l-6.354,3.754l-8.896-5.006l16.521-8.759l19.063,6.257l1.271,10.011l7.625,2.503l7.625-8.76l6.354,5.005l-1.271,13.766
		l11.438,5.006l27.96-15.017l-1.271-2.503l13.98,5.006l7.625,6.257l10.167-1.252l8.896,8.76l10.167-3.754v12.514l1.271,6.257
		l10.167,5.006h6.354v7.508l-2.542,6.257l-13.979,1.252l-7.625,6.257h5.083l7.625,7.508l-11.438,8.76l1.271,6.257l0,0l1.271,33.788
		l-12.709,8.759l-2.542,3.755l0,0l6.354,12.514l10.167-2.503l1.271,7.509l2.542,6.257l3.813,3.754l-16.522,6.257l-5.083,5.006
		l6.354,5.005l-7.625,3.755l5.084,3.754l-5.084,3.754l13.98,2.503l2.542,5.005l-10.167,2.503l-1.271,5.006H275.73l-17.792-7.509
		L246.5,890.623l-5.084-2.503l-8.896-2.502v-5.006l10.167-2.503l1.271-26.279l-8.896-18.771l-10.167-1.251l-5.083,7.508
		l-19.063-1.251l-11.438-6.257l-8.896,7.508l-11.438-6.257l-11.438-11.263l-5.083,1.252l-1.271-6.257l-11.438-2.503l-12.709-6.257
		L115.598,791.764z"/>
	<path id="path4167" fill="#01796F" stroke="#FFFFFF" stroke-width="1.4173" d="M254.128,132.288l6.354-6.257l6.354,1.251
		l6.354,5.005l-5.084,13.765l7.625,2.503l6.354,7.508l7.625-1.251l-1.271-8.76l-6.354-3.754l7.625-8.76l13.979,1.251l6.354,8.76
		l5.084,6.257l3.812,6.257l2.542-3.754h11.438l2.542,2.502l7.625-3.754v8.76l1.271,15.017l8.896,6.257l8.896,5.006l2.542,6.257
		l-1.271,7.508l-2.542,18.771l3.812,12.514l2.542,13.765l10.167,8.76l11.438,7.508l8.896,7.508l-3.812,10.011l-3.812,8.76
		l-3.812,5.005l-7.625-8.76l-12.709,11.263l1.271,13.766l-10.167-10.012l-6.354,12.514l-20.334-5.005l-13.98,3.754l5.083,12.514
		l-6.354,7.509l-3.813,6.257l-11.438-1.252l-10.167-8.759h-6.354v-13.766l-10.167-2.503v-30.033l-5.084-6.257l-5.083-8.76
		l-13.98-3.754l1.271-6.257l-3.812-2.503V242.41l-1.271-3.754l5.083-6.257l-3.812,6.257l7.625-11.263l7.625-3.754v-21.273
		l3.812-7.508v-5.006l-1.271-17.519l3.812-7.508l-13.979-15.017V132.288z"/>
	<path id="path2169" fill="#01796F" stroke="#FFFFFF" stroke-width="1.4173" stroke-linecap="round" stroke-linejoin="round" d="
		M115.598,78.479l-2.542-8.76l-2.542-6.257l6.354-8.76l5.083-11.262l5.084-15.017l10.167-15.017l2.542,16.268l1.271,8.76
		l10.167,10.011l10.167-2.502l2.542,8.759l10.167,2.503l1.271,7.508l10.167,3.754l1.271,5.005l10.167,2.503l6.354-7.508
		l3.812,10.011l5.083,6.257l7.625,5.006l2.542,5.005l6.354-2.502l3.813,3.754l-3.813,8.76l3.813,3.754l5.083,3.754v2.502
		l10.167-1.251v5.005l2.542,5.005v6.257l6.354,5.006l-1.271,11.262l5.083,8.76l6.354,8.76l-2.542,8.76v12.514v11.262l-3.812,10.011
		l2.542,12.514l-6.354,8.759l-8.896,12.514l-10.167-2.503l-13.979-1.251l-5.084-10.011l-6.354-5.005l7.625-13.765l-5.083-10.011
		l-6.354-7.508l-10.167-3.754l-5.084-5.006l-3.812-7.508l-6.354,2.502c0,0-1.588-1.251-5.083-2.502
		c-3.495-1.251-8.896-2.503-8.896-2.503l-6.354-2.503l-6.354,5.006l-10.167-2.503l-8.896-3.754l-7.625,5.005l-1.271,6.257
		c0,0-4.13-0.625-8.896-2.503c-4.766-1.877-10.167-5.005-10.167-5.005l-2.542-3.754l8.896-5.006l5.084-6.257l-3.813-7.508v-17.52
		l13.98-1.251l5.083-5.005l5.083-7.508l11.438-3.754l2.542-8.76l6.354,10.011l6.354-3.754l5.083-8.76l-5.083-6.257l-5.083-7.508
		v-8.76l-8.896-7.508l-11.438,2.503l-6.354-10.011l-6.354,5.005l-7.625-1.251L115.598,78.479z"/>
	<path id="path2192" fill="#01796F" stroke="#FFFFFF" stroke-width="1.4173" d="M48.241,317.493l-6.354-11.263l-7.625-10.011
		l5.083-11.262l-12.709-2.503l3.813-20.022l8.896-6.257l-1.271-7.508l5.084-10.011l15.25-10.011l5.083-13.765l-11.438-6.257
		l6.354-11.263l2.542-11.262l13.98-5.006v-12.514l19.063,2.503l13.98-3.754l19.063,12.514l3.812-10.011l12.973-2.683l11.174,3.935
		l10.167-1.251l25.418,6.257l10.167,11.263l8.896,3.754l12.708,15.017l-8.896,12.514l2.542,8.759l-6.354,6.257l-2.542,10.011h-8.896
		l-6.354-10.011l-3.813,7.508h-7.625l-3.812,13.766l5.084,5.005l-6.354,1.251l-7.625,12.514l-2.542,7.508l-3.812,7.508l5.083,6.257
		l-7.625,1.251h-5.083v-6.257l-16.521,1.251v10.011h-6.354l-1.271,12.514l7.625,3.755l-5.083,5.005v11.263l6.354,3.754l7.625,6.257
		l-1.271,8.76l-8.896,1.251l-7.625-7.508l-6.354-3.754v-5.006l-8.896-8.76h-7.625l-2.542-8.76l-13.979-7.508l1.271-6.257
		l-1.271-3.754l-11.438,3.754l-7.625,6.257l-6.354-7.508L48.241,317.493z"/>
	<path id="path2175" fill="#01796F" stroke="#FFFFFF" stroke-width="1.4173" d="M340.546,136.042l-3.812-10.011l-10.167,7.508
		l-5.083-7.508l7.625-6.257l-3.813-6.257l-6.354-1.251l-3.812,3.754l-12.709-6.257l-2.542-11.262l12.708-18.771l11.438-3.754v7.508
		l3.812,2.502l11.438,3.754l7.625,7.508l16.521-1.251l3.812,8.76l-7.625,1.251l6.354,7.508l-6.354,7.508h15.25l5.083,8.76
		l-1.271,3.754h-7.625l-7.625-7.508v11.263l6.354,7.508l10.167,11.263l1.271,7.508l-3.812,3.754l11.438,22.525l20.334,3.754
		l10.167,10.011l1.271,7.508l-5.084,2.503l1.271,2.503l8.896,1.251l10.167,5.006l8.896,10.011l16.521,3.754l7.626-13.765
		l5.083,1.251l1.271,6.257l6.354,2.502l5.083,5.006l5.084-3.754l-2.542,23.776l10.167,1.251l13.98,15.017l2.541-1.251v7.508h11.438
		l1.271,3.754L517.2,298.722l-6.354,1.252l1.271,15.017l-13.979,10.011l-3.812-1.251l-1.271-11.263l-3.812,1.251l-2.542,6.257
		l-10.167-1.251l-7.625-2.503l-1.271,2.503l-25.417-15.017c0,0,6.354-7.508,0-8.76c-6.355-1.251-12.709-5.005-12.709-5.005v-8.76
		l-7.626,1.251l-11.438-8.76l-12.709-5.005l-7.625-8.76l-16.298-5.306l-7.849-12.213l-6.354-28.782l3.812-18.771v-7.508
		l-20.334-12.514l1.271-25.027l10.167-3.754l-6.354-8.759L340.546,136.042z"/>
	<path id="path2174" fill="#01796F" stroke="#FFFFFF" stroke-width="1.4173" d="M215.999,224.888l-6.354,6.257l-2.542,10.011
		l-8.896,2.503l-7.625-11.262l-2.542,8.759h-8.896l-3.812,13.765l6.354,3.754v3.754l-7.625-1.252l-11.438,25.028l3.812,6.257
		l-2.542,3.754l-10.167,1.251l-1.271-7.508l-3.812,2.502l-13.98-2.502l2.542,12.514l-6.354-2.503l-1.271,11.263l6.354,3.754
		l-3.812,8.76l1.271,8.76l12.708,10.011v10.011l5.083,3.755l-1.271,11.263l-5.084,2.502v10.012l7.625,5.005h11.438v10.012
		l8.896,6.257l3.812,8.76l15.251,1.251l8.896-2.503l2.542,6.257l11.438,1.252v5.005l17.792,2.503l5.083-5.005l6.354-3.755
		c0,0,15.251,6.257,11.438,1.252c-3.812-5.006-3.812-13.766-3.812-13.766l7.625,7.509l7.625-7.509v12.514l6.354,2.503l5.083,11.263
		l-5.083,12.514l-6.354,3.754l7.625,3.755l1.271,10.011l16.521,16.268l3.812-6.257l3.813,5.006v5.006l31.772,2.502l3.813,5.006
		l-1.271,8.76l13.98,7.508l12.708-2.502l6.354,10.011l17.793-2.503l38.127,8.76l10.167-5.006v-8.76l-10.167-11.262l-1.271-11.263
		l-13.979-11.263l2.542-5.006l-3.813-2.502h-6.354l-1.271-7.509h-11.438l-7.625-8.76l3.813-2.503l-12.709-7.508l-8.896-35.039
		l-5.084-12.514l-19.063-3.754l-8.896-20.022l-17.792-11.263l-2.542-17.519l-13.979-3.755l-5.084-5.005l-7.625-1.251l3.812-13.766
		h-12.709l-1.271-30.033l-10.167-17.52l-11.438-2.503l-3.812-10.011v-11.263l-21.605-3.754L215.999,224.888z"/>
	<path id="path2176" fill="#01796F" stroke="#FFFFFF" stroke-width="1.4173" d="M423.156,490.181V480.17l-16.521-11.263l3.812-6.257
		l-10.167-2.503v-5.005l-12.709-1.252l-10.167-8.76l6.354-1.251l-16.521-8.76l-10.167-46.301l-20.334-5.006l-8.896-20.022
		l-15.25-8.76l-5.084-20.021l12.709-12.514l-3.812-12.515l13.98-3.754l21.605,3.754l3.812-10.011l12.709,10.011l-1.271-15.016
		l12.709-12.514l5.083,10.011l15.25-22.525l19.063,12.514h8.896v8.76l13.979,5.006l5.084,11.263l20.334,12.514l2.542-5.006
		l15.251,7.509l3.812,3.754l-1.271,3.754l11.438,2.503l3.812,5.006l-11.438,5.005l10.168,3.755l3.812,5.005v8.76l-3.812,2.503v6.257
		l7.625,3.754l1.271,3.755l-5.083,3.754l-10.167,7.508l3.812,6.257l-6.354,3.755l-3.812-6.258l-7.626-2.502l-1.271,3.754
		l-10.167-1.252l-5.084,6.258l12.709,11.262l-1.271,8.76l7.625,5.006l-8.896,11.262l-8.896,1.252l-8.896,10.011l-12.709,23.776
		v2.503l3.812,6.257l-6.354,2.503l13.98,10.011H423.156z"/>
	<path id="path3151" fill="#01796F" stroke="#FFFFFF" stroke-width="1.4173" d="M504.491,358.788v-8.76l-11.438-10.011l11.438-1.251
		l-7.625-7.509h-8.896l-3.812-11.263l8.896-7.508v8.76l6.354,5.006l11.438-10.012l1.271-16.268l16.521-13.766l-1.271-5.005
		l-11.438-1.251v-8.76l-5.083,3.754l-12.709-17.52H487.97l3.812-22.525h17.792l2.542,5.006l-1.271,6.257l7.625,7.508l2.542-5.005
		l6.354-2.503v-6.257l-6.354-1.251l-1.271-11.263l13.98-10.011h11.438v-6.257l-3.812-2.502l-1.271-10.011l-3.812,1.251l-2.542,5.005
		l-2.542,3.754l-5.083-2.503l5.083-8.76l-2.542-5.005l-2.541-5.005v-6.257h5.083l7.626-8.759l2.541-6.257l-1.271-7.508l3.812-3.754
		h11.438l7.625,6.257l-5.084,5.005l-1.271,6.257l-1.271,2.502l3.812,7.508l5.083-3.754h13.98l3.812,11.262l12.709,21.273
		l-5.084,2.503v7.508l7.626,2.503l6.354,18.771h12.709l-12.709,11.263l12.709,3.754l8.896,3.754v3.754l-6.354,6.257l-11.438,10.011
		l1.271,13.765l-6.354,8.76l5.084,8.76l5.083,8.76l-7.625,7.508v7.509l6.354,1.251l-2.542,10.012l11.438,8.759v32.536l-6.354,12.514
		l-1.271,20.022l-2.541,11.263l-3.813,3.754l-1.271,13.766l-6.354-3.755l-8.896-5.005v7.508l5.084,3.754l-11.438,8.76l-5.083-1.251
		v-5.006l-2.542,2.503l-10.167-1.251v-6.257l5.083-2.503l-5.083-1.252v-6.257l3.812-10.011l-15.251-3.754l8.896-3.755l-5.084-7.508
		v-5.006l-11.438-10.011h-8.896l-2.542,6.257l-3.812-10.011l-15.251-7.509l-5.083-13.765l-6.354-6.257V358.788z"/>
	<path id="path2177" fill="#01796F" stroke="#FFFFFF" stroke-width="1.4173" d="M400.28,510.206l21.605,7.508l10.167-5.006
		l2.542-8.76l-10.168-13.765l29.231,1.251l-11.438-11.262l8.896-1.252l-6.354-10.011l17.792-27.53l6.354-7.509l6.354,2.503
		l10.168-13.766l-8.896-5.005l1.271-11.263l-11.438-8.76l3.813-6.257l10.167-3.754l10.167,2.503l1.271,10.011l10.168-5.006
		l-6.354-8.76l15.25-8.759l10.167,13.765l8.896,6.257l5.084,11.263l3.812-7.509h7.625l10.168,8.76v5.006l6.354,6.257l-12.709,6.257
		l19.064,3.754l-3.813,3.754v11.263l2.542,2.503l-3.812,1.252v6.257l10.167,1.251l5.084-5.006v6.258l3.812,2.502v20.022
		l6.354,13.765l1.271,8.76l-8.896,12.514l-6.355-1.251l-8.896,7.509l-1.271,11.262l-8.896,12.514l-7.626,8.76v6.258l3.812,6.256
		l5.084,1.252l-6.354,3.754l-2.542,7.509l-2.542-5.006l-13.979-1.251l-11.438,3.754l-2.541,6.257h-6.354l-2.542-5.006l-19.063-3.754
		l-5.083-6.257l-3.813-1.252l-3.812,5.006l-6.354-3.754l-3.812-1.252l-2.542,5.006l-10.167-1.251l-3.812-12.514h-5.084l-3.812-3.755
		l-13.979-1.251l-5.084,6.257l-7.625-6.257v-3.754l-10.167-13.766h-3.812l-5.084-6.257l-2.542-6.257L400.28,510.206z"/>
	<path id="path3152" fill="#01796F" stroke="#FFFFFF" stroke-width="1.4173" d="M335.462,636.595l-1.271-22.524l2.542-2.503
		l1.271-27.53l-7.625-7.509h-6.354l-2.542,5.006h-5.083l-5.083-10.011v-6.257l3.812-1.252l1.271-18.771l-7.625-1.251l3.812-2.503
		l-5.083-10.011l6.354-6.258l-1.271-8.76l2.542-17.519l15.251-5.006l5.083,1.251l11.438,8.76l13.979-2.502l6.354,8.76l17.793-2.503
		l13.979,5.005l-5.083,10.012l6.355,10.011l6.354,5.006l8.896,12.514l-1.271,3.754l11.438,7.509v5.005l-7.625,6.257l-5.083,2.503
		l5.083,7.509l-7.625,2.502l2.542,5.006l-7.626-3.754l-6.354,17.52h-5.083v10.011l3.813,3.754l-1.271,5.006l-6.354-1.251v-3.755
		h-13.98l-1.271-8.76l-8.896-3.754l-1.271,17.52h-3.813l1.271,5.005l7.625,5.006v3.754l-11.438,7.509l-3.813,2.503l-6.354-5.006
		l-6.354,7.508v-5.005h-6.354v5.005l-2.542-3.754h-8.896v-7.508L335.462,636.595z"/>
	<path id="path2179" fill="#01796F" stroke="#FFFFFF" stroke-width="1.4173" d="M322.753,646.606v-8.76l12.709-1.252l-2.542-22.524
		l5.083-1.251l-1.271-26.279l-7.625-12.514h-2.542l-5.083,6.257l-6.354,1.251l-6.354-11.262v-5.006h5.084l3.812-20.022h-13.98
		l7.625-2.503l-7.625-10.011l5.083-6.257l-10.167-1.252h-5.083l-16.522-10.011l-3.812,8.76l-8.896,6.257h-2.542l-6.354-7.508
		l-6.354,3.754l-15.25-8.76l-8.896-2.503l-2.542,5.006l-24.147-1.252l-6.354,12.515h-6.354v-7.509l-3.812-3.754l-3.813,5.005
		l-5.083-6.257h-7.625l-6.354-5.005l-2.542,5.005l-8.896,3.755l0,0L146.1,532.73l10.167,5.006v3.754l-8.896,3.754v17.52l2.542,3.754
		l-6.354-1.251l-1.271,11.262l6.354,5.006l-5.083,6.257l-6.354,3.755v7.508l-6.354,1.251v5.006h8.896l7.625,7.509l1.271,13.765
		h3.812v-5.005l1.271-5.006h5.083l8.896,8.76v5.005l-8.896,15.017l-6.354,2.503l-10.167,1.251l-1.271,3.755l-11.438-2.503
		l-3.812,7.508l8.896,5.006l5.084-2.503h15.25l-5.083,7.509l6.354,2.503l12.709,1.251l3.812,7.508l-6.354,1.252l-6.354-2.503h-5.083
		l-1.271,3.754l8.896,2.503l7.625,3.754l1.271,3.755l6.354,3.754l13.98,3.754v8.76l6.354,2.503l7.625-10.011l6.354,8.759
		l-1.271,13.766l5.083,5.006l1.271-2.503h6.354l7.625-3.754l17.792-12.515h5.083l1.271,5.006l8.896-1.251l0,0l6.354,7.508
		l2.542-2.503h8.896l7.625,8.76l1.271-2.502l7.625-1.252l3.812,5.006v12.514l6.354,5.006l6.354,1.251l13.98,1.251v7.509l2.542,2.503
		h5.084l1.271-3.755v5.006h7.625l2.542,7.509l5.083-6.257l3.812,1.251l8.896-7.509v-12.514l-3.812-2.503v-8.759l10.167-15.017
		l3.812-6.258l-1.271-11.262l2.542-10.012l-6.354,5.006l-13.98,1.252l1.271-11.263l-8.896-15.017H346.9l-10.167,10.011l-3.813-1.251
		l-11.438,10.011l-1.271-27.53l-5.084-2.503L322.753,646.606z"/>
	<path id="path2180" fill="#01796F" stroke="#FFFFFF" stroke-width="1.4173" d="M170.249,690.404l-7.625-6.257l-8.896-2.503
		l1.271-5.005l17.792,3.754l-3.812-7.508H157.54l-11.438-5.006l6.354-7.509l-11.438-2.503l-5.084,5.006l-10.167-5.006l2.542-8.76
		l10.167,3.755l2.542-5.006l13.979,1.251l3.812-5.005l10.167-16.269l-12.709-12.514l-3.813,11.263l-7.625,1.251l2.542-12.514
		l-7.625-8.76l-7.625-1.251l-3.812,8.76l-15.251-1.251l-2.542,10.011h-3.812l-1.271,5.005h8.896v6.258l-5.083,7.508l-2.542-7.508
		l0,0l-6.354,6.257l-2.542-6.257l-7.625-5.006l-3.812,7.508l3.812-12.514l-12.709-8.76l1.271-7.508l-8.896-1.252l-1.271,3.755H58.41
		l-10.167,6.257l-1.271,6.257l6.354,6.257l2.542,17.52l-22.876,15.017l2.542,10.011l-7.625-1.251l-3.812,3.754l-1.271,10.011
		l-1.271,8.76l-1.271,6.257l-6.354-1.251l-6.354,3.754l3.812,3.754l6.354,5.006l-1.271,5.006l13.98,8.76L29.18,731.7l7.625,7.508
		l-3.813,11.263l5.084,10.012l6.354,7.508h8.896l7.625,7.509l5.083,6.257l8.896-1.252l31.772,10.011h12.709v-6.257h-1.271
		l-6.354-10.011v-17.52l-6.354-7.508v-11.263l15.251-7.508l10.167-1.252l0,0l13.98-8.76l-1.271-10.011h26.689l2.542-2.503
		l-5.083-3.754l-5.083,2.503l-8.896-5.006L170.249,690.404z"/>
	<path id="path2184" fill="#01796F" stroke="#FFFFFF" stroke-width="1.4173" d="M321.485,684.147l-1.271-26.279l-5.083-3.754
		l10.167-8.76h7.625l3.813,8.76l1.271-8.76h3.812v7.509l8.896-11.263l6.354,6.257l15.25-12.514l-12.709-12.514l6.354,2.503
		l1.271-18.771l7.625,3.755l1.271,7.508l13.98,1.252v5.005h10.167l-1.271-7.508l-6.354-3.754v-7.509l6.354,1.251l7.625-20.021
		l8.896,5.006l-3.812-7.509h8.896l-6.354-8.76l12.709-7.509l1.271-8.759l-5.084-1.252l5.084-5.005l13.979,2.502l8.896,5.006
		l2.542,11.263l11.438,2.503l2.542-6.258l11.438,6.258l3.813-7.509l10.167,10.011l15.25,2.503l6.355,6.257h5.083l3.812-8.76
		l21.605-2.502l3.812,6.257l3.812,1.251l-3.812,10.012h5.084l2.542,8.759l-5.084,7.509l5.084,3.754l-2.542,6.257l5.083,7.509
		l1.271,8.76l-6.354,1.251v11.263l10.167,11.262h8.896l3.812,6.258l-2.542,3.754h-17.792l-2.542,3.754v7.508h-2.542v8.76
		l-12.709,17.52l-8.896-8.76l-6.354,3.755l-5.083-5.006v6.257l-5.084,5.006l-1.271,10.011l5.083,2.503l-2.541,6.257l1.271,2.503
		l7.625-1.252l7.626,6.257l-5.084,6.257l8.896,5.006l-5.084,6.257h-7.625l-1.271,5.006l-7.625-2.503l-5.084-7.508l-1.271,6.257
		h-7.625l-3.812-5.006l-10.167,5.006l-8.896,1.251l-10.168-6.257l-25.417,1.251v-6.257l-6.354-8.76h-3.812l-7.626-7.508
		l-10.167-1.251l-5.084,3.754l2.542,10.011l-1.271,3.754l-13.98-11.262v-5.006l5.083-3.754l-2.542-6.257l-7.625,6.257l-3.812-3.755
		l-6.354,13.766l-8.896-17.52l6.354-7.508l-1.271-18.771l-6.354,6.258l-12.708-1.252l1.271-6.257l-11.438-18.771l-8.896,10.011
		l-3.813-5.005L321.485,684.147z"/>
	<path id="path3179" fill="#01796F" stroke="#FFFFFF" stroke-width="1.4173" d="M288.439,908.146v-6.258l12.709-1.251l-2.542-6.257
		l-16.521-2.503l5.083-5.005l-5.083-2.503l7.625-3.755l-5.083-7.508l20.334-7.509l-6.354-10.011v-7.508l-12.709,1.251l-5.083-12.514
		l16.521-11.263l-2.542-40.044l12.709-8.76l-8.896-8.76h-7.625l11.438-7.508l12.709,2.502l5.084-10.011l-1.271-5.006h8.896
		l-1.271,6.257l7.625,6.258l10.167,1.251l8.896,1.251l11.438-7.508l1.271-13.766h-5.084v-11.262l10.167-12.515l8.896,15.017
		l5.084-12.514l5.083,2.503l7.625-7.508l3.812,5.005l-7.625,8.76l15.25,11.263l1.271-5.006l-5.084-6.257l6.354-6.257l11.438,2.503
		l7.625,6.257l7.625,6.257l3.813,8.76l3.812,3.754l-21.605,28.782l-12.709,15.017l7.625,3.754l2.542,7.509l6.354,3.754l1.271,23.776
		l-10.168,10.011v6.257l-6.354-1.251l-11.438,22.524l-8.896,5.006h-7.625l-3.813,8.76l-11.438,8.76l-22.876,5.005l-5.083-5.005
		l-3.813-1.252l-5.083,8.76v8.76l-15.25-1.251l-12.709-3.755l-5.083,6.257L288.439,908.146z"/>
	<path id="path4248" fill="#01796F" stroke="#FFFFFF" stroke-width="1.4173" d="M428.237,829.308v-18.771l-6.354-5.005v-5.006
		l-8.896-7.509l34.313-41.295l-2.542-5.006h22.876l8.896,7.508h8.896l11.438-6.257l10.167,5.006l2.541-8.76l5.084,10.011
		l8.896,2.503v-6.257h6.354l6.354-5.005l-10.167-6.258l5.083-5.005l-8.896-7.509l-7.625,1.252l-2.542-1.252l6.354-6.257
		l-6.354-3.754l3.812-13.766v-8.759l6.354,6.257l7.626-2.503l7.625,7.508l16.521-17.52l-2.542-7.508l2.542-12.514l15.251,1.251
		l5.083,6.257l3.813,3.754l2.542-5.005h3.812l6.354,6.257l3.812,1.251l1.271,7.509l-7.625,1.251l-1.271,3.755l7.626,6.257v18.771
		l-2.542,10.011h-7.625l6.354,7.509l1.271,8.76l-6.354,3.754l-1.271,7.508l-5.084-1.251l-6.354,7.508l6.354,8.76v10.012
		l-8.896,6.257l-3.812,6.257l17.793,18.771l-7.626,7.508l1.271,5.006l8.896,6.257l6.354,10.012l-2.541,36.29l3.812,5.005
		l-3.812,3.755v5.005l3.812,1.252l5.083,5.005v3.754l3.812,3.755l-1.271,15.017l-8.896,17.52l-16.521,6.257h-8.896l-10.168-12.515
		l-15.25-11.262H531.18l-16.521-13.766l-12.709-2.503l-1.271-6.257l6.354-2.503l1.271-8.759l-5.084-2.503l3.813-2.503v-5.006
		l-5.084-6.257l-3.812,2.503l-11.438,2.503l-3.812-2.503v-8.76l5.084-2.503c0,0,0-7.508-5.084-7.508s-6.354,0-6.354,0l-3.812,6.257
		h-2.542l-2.542-7.509v-10.011l-11.438-7.509l-10.167-2.502L428.237,829.308z"/>
	<path id="path5240" fill="#01796F" stroke="#FFFFFF" stroke-width="1.4173" d="M332.922,910.646v-8.76l5.083-8.76l6.354,6.257
		l25.417-5.006l12.709-10.013l2.542-10.013l7.625,2.505l11.438-6.26l7.625-22.522l7.625,3.755l1.271-10.012l10.167-10.013
		l26.688,6.259l8.896,3.754v12.516l3.812,7.509l8.896-5.006l7.626,2.503l-5.084,3.754v10.013l5.084,3.755h11.438l5.084-6.26
		l5.083,8.762l-7.625,6.259h6.354v7.509l-7.626,3.754l2.542,8.762l11.438,1.252l16.521,13.766l11.438-1.25l16.521,13.765
		l8.896,12.516l-12.709,2.503v7.511l-5.083,1.25l1.271,11.264l6.354,7.509l10.167-2.503l5.084,15.019h-5.084l-10.167-11.264
		l3.813,15.02l15.251,2.502l11.438,7.509l-11.438,3.754l-6.354,3.756l-15.251-1.253l-15.25-6.257l-17.793,5.006l-11.438,5.006
		l-30.503-18.771l-5.084-12.515l-15.25-16.27h-6.354l5.083,12.515l-6.354,7.509l-13.979-2.503l-8.896-12.516l-12.709-13.765
		l-5.084-2.505h-17.791l-7.625-5.006h-13.98l-7.625-1.251l-10.167,8.762v-6.259l-10.167-3.755l-5.083-10.013l2.542-16.268
		L332.922,910.646L332.922,910.646z"/>
	<path id="path3188" fill="#01796F" stroke="#FFFFFF" stroke-width="1.4173" d="M228.707,886.872h13.98l12.709,11.262l17.792,10.012
		l13.98,1.251l13.98,2.503l5.083-8.76l10.167,6.257h16.521l7.625,13.765l-2.542,11.263l3.813,11.263l5.083,1.251l6.354,1.252v7.508
		l11.438,5.006l3.812,10.011l5.083-6.257l6.354,3.755l7.625,8.759l17.792-1.251l-12.709-11.263l15.251-3.754l13.979,10.011
		l-10.167,3.755l1.271,7.508l11.438,8.76l7.625,5.006l7.626-1.252l5.083,2.503l-1.271,11.263l-1.271,17.52l-8.896,10.011
		l2.541,6.257h-8.896l-15.251-10.011l-3.812-1.252l-2.542,7.509h-11.438l-6.354,8.76l-7.625-2.503l-10.167,8.76l-1.271-11.263
		h-7.625l1.271-7.509l-8.896-2.502l-1.271,5.005l6.354,8.76l-8.896,2.503l-0.745,8.47l-9.422,4.044v-16.268l-1.271-11.263
		l-5.083-6.257l-5.083,3.754l-6.354,8.76l-6.354-15.017l-10.167-2.503l6.354-7.508l-11.438-2.503l-8.896-6.257l5.083-5.006v-5.005
		l-7.625,1.251l-5.084-3.754l8.896-5.006l-3.812-10.011l-5.084-6.257l-8.896,5.005l-3.813-12.514l-3.812-5.005h-3.812v10.011
		l-13.98-15.017l-5.083-6.257l-1.271-7.509l8.896-2.502l-11.438-6.258l7.625-3.754l-15.25-11.263L228.707,886.872z"/>
	<path id="path5134" fill="#01796F" stroke="#FFFFFF" stroke-width="1.4173" d="M247.773,955.697l15.25,16.269l1.271-12.514
		l7.625,7.508v7.509l3.813,5.005l7.625-7.508l8.896,13.765l-11.438,7.509l7.625,6.257l7.625-2.503l2.542,5.006l-8.896,3.754v2.503
		l-1.271,7.508l-6.354-3.754l-5.083,7.509l1.271,11.262l-11.438,1.252l0.317,23.775l-10.485,10.95l-9.849,1.564l-6.672,5.005
		l-5.083-1.251l-16.521,13.765l-2.542,3.754l-18.428,0.939l1.906-13.453l-8.896-2.502l-2.542-5.006l6.354-3.754l2.542-8.76
		l-6.354-2.503l1.271-13.765l6.354-6.258l-8.896-12.514l6.354,2.503l7.625-7.508v-2.503l-3.812-3.754l1.271-13.766l-2.542-2.503
		l7.625-3.754l6.354,2.503v7.508l4.387-5.519l7.687-0.425l13.344-14.078l8.261-0.938l2.859-7.509l-2.224-10.324L247.773,955.697z"/>
	<path id="path6105" fill="#01796F" stroke="#FFFFFF" stroke-width="1.4173" d="M213.459,1089.595l21.605-16.268l6.354,1.252
		l5.083-6.257l10.617-2.288l8.82-10.379l0.897-23.623l10.091-1.404l-2.466-11.109l7.625-6.258l6.354,5.006l2.618-11.34l6.278,6.332
		l14.661,1.251l-8.307,7.511l10.167,3.755l2.697,5.813l7.47,9.203l2.542-6.258l6.354-6.257l5.084,6.257l1.426,28.414l-0.155,16.635
		l-3.812,13.766l-3.281,4.354l-8.157,1.906v3.754l5.083,3.754l-1.271,6.258l-13.979-2.504l-7.625,2.504l5.95,1.436l4.217,8.578
		l-1.271,17.52l-6.354,2.502l7.401,4.189l2.766,5.822l-13.685,10.529l-11.733,0.443l-1.271,11.553h-8.896l-7.252-5.664l-7.999,3.16
		h-11.438l-3.812-3.754v-15.016l3.812-11.264l7.625,2.504l-0.976-8.318l2.992-7.432l-3.287-3.314l-6.354-0.961l5.534,5.371
		l-9.346,7.143l-5.083-5.002l1.271-5.006l-4.417-4.045l-9.625-4.752l-16.458-12.477l3.812-8.76L213.459,1089.595z"/>
	<path id="path7082" fill="#01796F" stroke="#FFFFFF" stroke-width="1.4173" d="M254.126,1170.933l15.25,3.754l7.625-5.004
		l5.083,6.256l10.167,1.252l1.271-13.766l8.896,1.252l16.521-10.012l-1.271-6.26l-10.167-6.256l5.083-2.502l2.542-17.521
		l-3.813-6.26l-6.354-3.754l7.625-3.756l15.251,6.258l1.271-6.258l-5.083-6.258l-1.271-3.754h7.625l10.167-17.521l-1.271-20.021
		l8.896-3.754l3.813-8.762h6.354v-5.006l-6.354-7.51l1.271-5.006l7.625,3.755v6.259l7.625,2.502l1.271,7.511h5.084l5.083-7.511
		l8.896,3.756l6.354-8.763h11.438l3.813-7.509l15.251,10.669l10.167,1.846l1.271,5.007l17.793,15.019l1.271,7.508l-2.542,3.756
		h-3.813l-2.542,5.004l3.813,3.758l1.271,5.004l-3.812,1.252v7.508l5.083,2.504l-1.271,2.502h-6.354l-6.354,10.014l1.271,13.768
		l-1.271,13.764l-3.812,6.26l-5.084,5.008l-6.354-1.252l-7.625,15.018l-1.271,8.762l5.083,1.25l-5.083,3.754v6.258l-6.355,6.258
		l-5.083-5.006l-2.542,3.754l3.813,10.012l-8.896,3.758l-21.604,3.754l-6.354-15.02h-10.167l-5.084-11.264l7.625-5.006
		l-12.709-5.006l-5.083-3.754l-3.813,3.754l7.625,10.012H334.19l-10.167,5.006l7.625,7.51l7.625,3.754l-10.167,1.252l-16.521-5.006
		l-3.813,1.252l7.625,5.004l-3.813,8.762l-3.813,6.258l-1.271,6.256h-21.606l-12.708-6.256v8.762l-12.709-1.252l-2.542-6.258
		l-10.167-1.252l-6.354-3.754v-6.258l-7.625-5.008v-6.256l2.542-5.006l10.167-2.502l-1.271-6.258L254.126,1170.933L254.126,1170.933
		z"/>
	<path id="path8053" fill="#01796F" stroke="#FFFFFF" stroke-width="1.4173" d="M421.884,1175.939l-6.354-3.754v-6.258l8.896-15.018
		l6.354,1.25l10.167-12.516v-15.016l-1.271-12.516l3.813-10.014h8.896l2.542-3.754l-6.354-1.252v-8.76h3.812v-5.006l-5.084-5.008
		l1.271-5.004l6.354,2.502l2.541-5.007l-1.271-7.509l1.271-3.754l16.522,1.252l2.541,6.257l12.709,10.011l3.812,12.518l5.083,6.256
		v8.76l5.084,6.258l5.083,2.502v5.006h-6.354l-5.083,3.758l1.271,3.754H517.2l10.167,6.258l2.542,8.76h3.812v13.768l8.896,13.768
		l2.542,7.508l-11.438-7.508l-5.083,5.004l6.354,2.504v16.27h-15.251l-6.354,11.264l-6.354,2.504l-8.896-11.264l-5.083,2.504
		l-7.626,10.01l-5.083,2.504h-2.542l-6.354-7.508l-3.813,1.25l-7.626-8.76h-1.271l-2.542,2.504h-6.354l-6.354-5.008l-1.271-7.51
		l-7.625,1.25L421.884,1175.939L421.884,1175.939z"/>
	<path id="path2204" fill="#01796F" stroke="#FFFFFF" stroke-width="1.4173" d="M306.233,1218.488l10.167-17.521l-10.167-8.76h7.625
		l12.709,6.258h13.979l-16.521-12.518l6.354-5.004l17.792,1.25l-8.896-10.01l3.813-6.26l2.542,5.006l15.25,5.008l-6.354,5.006
		l3.813,10.012l11.438,1.252l5.084,15.016l15.25-2.502l16.521-3.754l-5.083-10.014l1.271-5.006l6.354,5.006l7.625-6.256
		l-2.542-7.512l5.083-2.502l16.521,11.264l6.354-1.25l1.271,6.256l7.626,7.51l6.354,1.252l3.813-5.008l6.354,8.762l11.438,3.754
		l-3.813,6.258l6.354,3.754l-3.813,3.756l1.271,15.018l-3.813,5.008l2.542,11.264l-11.438,1.252v3.754l6.354,2.502l1.271,5.006
		l-3.813,1.252l1.271,8.762l11.438-7.512h3.813l-1.271,12.516l7.626,2.504v2.502h11.438l2.542,3.754l-2.542,8.762l7.625,12.516
		c0,0,6.354,8.76,1.271,8.76c-5.084,0-7.626,0-7.626,0l-8.896-2.502l-3.813-3.754l-6.354-15.02l-3.813-3.756l-8.896,6.26l2.541,8.76
		l-7.625,11.264l-16.521,7.51l-1.271,6.258l5.083,6.256l-1.271,16.271l-1.271,5.004l-13.979-6.256v-6.26l-5.084-1.25l-1.271,3.754
		l-11.438,10.012l-7.625-1.25l-11.438,6.256h-7.625l0,0l-8.896-6.256l-1.271,1.25l-5.083-3.754l-1.271-6.258l7.625-1.252
		l-8.896-11.262l7.625,1.25l1.271-3.756l-5.083-8.76l-10.167-6.256l-1.271,7.508h-19.699l-8.261-6.258l-6.354-3.756l0,0
		l5.083,11.891l-5.083,5.006l-19.063-2.504l-5.084-5.631l-6.354,3.754h-5.083l3.813-7.508l-15.251-6.258l2.542-22.523l7.625-2.504
		l-3.813-6.256v-6.26l-5.083-3.754l10.167-16.27l12.709-5.006l-1.271-10.012l12.709-8.76l5.083,3.754l3.813-7.51l-5.083-2.502
		l-1.271-6.258l-11.438,8.76l-6.354-3.754L306.233,1218.488L306.233,1218.488z"/>
	<path id="path2205" fill="#01796F" stroke="#FFFFFF" stroke-width="1.4173" d="M479.074,1218.488l-6.354-8.762l10.167-1.252
		l10.168-10.012l3.813-3.754l7.625,11.264l8.896-3.754l6.354-8.76h13.979l3.813,10.01h10.168l1.271,2.504l-8.896,10.012l3.812,7.51
		h13.98l6.354,7.51v5.006l-3.812,6.258l3.812,1.252l8.896-6.26l10.167,1.252l-1.271,8.762l-3.812,8.76l-5.084,10.014h-6.354
		l-10.166-2.506l16.521,13.768l5.084,7.51l5.084,12.514l13.979,8.762v6.26l-3.812,1.252l-11.438,2.502l-29.229-11.266
		l-10.167,11.266l-16.521-8.764l-5.084,7.512h-3.812l-13.979-16.271l5.082-7.508l-3.812-7.51l-12.709-1.252l-6.354-6.258
		l2.541-10.012l-5.084-1.252l-11.438,11.264l2.542-10.012l-1.271-7.51l-7.625-2.502l13.979-2.502l-2.542-11.264l5.084-5.008
		L479.074,1218.488L479.074,1218.488z"/>
	<path id="path2206" fill="#01796F" stroke="#FFFFFF" stroke-width="1.4173" d="M332.922,1317.345l8.896,11.262l-6.354,7.512
		l-7.625-5.006l-10.167,1.252l-5.083-5.008l-11.438,6.258l2.542,10.012l7.625,8.762l3.813-6.258l5.083,2.504l-1.271,6.256
		l5.083,2.504l-1.271,7.51l-7.625,7.508l5.083,5.008l-5.083,1.25l-1.271,11.264l-7.625-3.754l2.542,11.262l10.167,13.768
		l-11.438,21.271l12.709,8.762l-2.542,7.508l-2.542,10.014l11.438,8.762l-2.542,11.262l7.625,12.516l1.271,13.766l5.083,3.756
		l-11.438,3.756l1.271,7.508l5.083,3.754l-5.083,21.273l12.708,1.252l2.542,10.01l-10.167-2.502v6.256l7.625,8.762l7.625,1.252
		v11.264l8.896,7.51l1.271,16.268l11.438-2.504l-8.896,12.518h-11.438l-1.271,10.012l3.813,12.514l11.438,20.021l-3.813,2.502
		l-1.271,30.033l8.896,11.262l1.271,16.271l1.271,8.762l15.251,7.51l11.438-5.008l7.625,15.018l-2.542,6.26l7.625,7.508
		l-5.083,11.266l-11.438,12.514l15.25,6.258l15.251-3.756l-2.542-6.256h8.896l1.271-7.51l-6.354-3.754l5.084-7.512v-25.023
		l-5.084-2.504l10.806-8.762l8.262-23.773l7.626-7.51l-3.813-11.266l-10.166-18.77l-10.168-20.023l-3.812-8.76l8.896-8.758h-21.604
		l12.709-17.521l6.354-13.766l5.084-31.285l-12.709-20.021v-6.26l7.625-6.256l-12.709-8.76l1.271-23.777l11.438-6.256
		l-11.438-21.271l1.271-28.783l7.625-8.758l6.354,11.262l7.625-10.012l-2.541-6.258l-7.626-1.252l-5.083-5.006l5.083-10.012
		l2.542,5.004l6.354,2.506l2.543-8.762l6.354-3.754l-1.271-6.258l-11.438-18.771l-12.709-6.258l-6.354-11.264l-2.542-3.758
		l-10.166,7.512l-8.896,1.25l-7.625-7.51l-3.813,2.506l-5.084-11.266l7.625-2.502l-11.438-11.264l10.167,2.504l-5.083-15.021
		l-7.625-5.004l-1.271,8.762h-20.334L332.922,1317.345L332.922,1317.345z"/>
	<path id="path3186" fill="#01796F" stroke="#FFFFFF" stroke-width="1.4173" d="M446.667,1406.82l-4.448,1.877l-1.903,9.387
		l-6.354-3.129l-2.542-6.885l-6.99,11.264l5.085,5.633l8.264,0.625l3.177,7.51l-7.625,10.014l-6.354-10.639l-8.262,7.51
		l-0.636,26.902l12.073,23.775l-12.073,6.256l-1.271,23.15l12.072,9.387l-6.99,4.379l-0.635,6.885l13.344,21.271l-5.719,30.031
		l-17.792,31.91l20.97-0.625l-8.262,8.762l22.241,46.926l5.083,12.516l8.261,2.504l0.636,8.135l-13.345,2.504l-10.167,16.895
		l5.721,5.006l3.813,11.264h5.719l1.906,10.012l3.812,12.516l15.891,1.252l9.529-14.393l5.084-3.129l5.084-9.387l-2.541-5.633
		l-3.181-7.508l-12.071-7.51l9.529-5.006l17.157-17.521l1.271-13.768l0.637-15.645h5.084l8.896-32.535l0.639-25.65l-5.723-23.775
		l17.157-16.895l3.812-8.137l5.72-1.252l7.626-12.514v-15.646l-11.438-33.158l-6.354-3.131v-15.018l-8.896-18.771l-2.541-21.271
		l5.083-11.891l10.167-10.01l6.354-21.898l5.084-4.379l4.447,3.129l9.529-9.389l4.447-8.76l-1.906-10.012l-3.812-3.754v-8.135
		l13.345-0.627l8.261-6.883l5.084-26.279l-29.229-10.012l-12.709,11.264l-14.615-8.76l-6.354,8.135l-6.354,3.754l-14.614-1.877
		l-5.72-3.754l-10.167-19.396l-9.532,3.754l3.181,10.014l-9.531,11.264l-15.887,7.51l-1.905,5.004l5.083,5.635l-1.271,24.398
		l-14.611-6.881l1.271-6.26l-5.719-2.502l-0.636,4.379l-11.438,10.014l-8.261-1.252l8.896,15.018l12.709,5.633l9.531,16.27
		L446.667,1406.82L446.667,1406.82z"/>
	<path id="path4157" fill="#01796F" stroke="#FFFFFF" stroke-width="1.4173" d="M434.593,1736.558l-2.541,22.523l13.979,8.762
		l3.812-13.768L434.593,1736.558L434.593,1736.558z"/>
	<path id="path7070" fill="#01796F" stroke="#FFFFFF" stroke-width="1.4173" d="M582.805,1316.873l14.38-5.311l-1.8,15.93
		l14.379,5.311l-8.982,8.85l1.797,8.85l12.581,8.85l16.176-5.311l10.784,12.391l1.797,24.773l-12.581,5.311l-7.188,3.541
		l-1.799,12.387h17.975l3.595,3.539v19.471l7.189,17.695l-5.396,8.85l7.189,23.008l-14.379-7.08l-10.784-5.309l-3.595,3.539
		l19.771,14.156v5.311h-5.392l-8.986,10.615v23.01l-10.784,17.695l-3.595,10.617l-1.797,21.236l10.783,15.928l3.595,19.467
		l-14.378,19.469l5.392,12.391l-1.797,23.006l7.188,19.467v10.619h-7.188v10.617l-25.163,15.928l-8.984-7.078l-21.565-1.77
		l-12.581,3.539l23.364,17.695l-5.396,10.617h-19.771l-14.378-3.539l8.982,17.697l-12.581,3.539l-14.379-5.311l5.396-12.391
		l-10.783-15.928v-14.156l-1.798-14.158l3.595-28.312l-3.595-15.928l8.985-24.775l1.799-30.086l-7.189-26.545l21.568-17.697
		l12.58-8.85l3.596-28.314l-14.379-28.312l-5.396-5.312v-12.389l-8.983-17.697l-3.596-23.006l16.178-26.545l7.188-21.236h10.784
		l12.581-14.158v-12.389l-7.189-5.309v-10.619l19.771,1.77l5.393-14.156L582.805,1316.873L582.805,1316.873z"/>
	<path id="path8041" fill="#01796F" stroke="#FFFFFF" stroke-width="1.4173" d="M548.973,555.255l17.793-18.771l-1.271-11.265
		l8.896-10.011l8.896,1.251l7.626-10.013l-1.271-12.516l-6.354-11.263v-21.271l12.709-8.762l-6.354-3.754v-8.76l13.979,10.011
		l-3.813,20.021l7.625,7.509l-1.271,10.012l8.896,6.257h8.896l6.354-8.759l11.438,2.502l7.625-1.251v18.771l-2.542,2.503
		l-7.625-5.006l-3.813,17.521l-7.627,7.509l3.813,8.762l10.167-1.254l-1.271,6.259l-5.082,6.257l-1.271,10.014l11.438,8.759
		l-1.271,7.509l-8.896,5.008l1.271,5.005h-6.354v6.258l6.354,12.516l1.271,7.509l7.628-1.25l6.354,7.508l-2.542,7.511l8.896,3.754
		l29.229,7.508l2.542,8.761l16.521-13.766l24.146,11.262l-1.271,15.019l-11.438,12.516l-8.896-1.251h-20.334l-11.438,2.503
		l-19.063,22.522l-6.354-8.759l-2.542-3.757l-8.896-3.754v7.511l-10.17,6.257l-5.08-3.755l-3.813,7.509l3.813,7.51l7.625,5.006
		l-2.545,5.006l-3.812-1.252L621.41,721.7h-6.354v8.76l-7.625,2.503v13.768l-6.354,2.503l-10.167-1.251v-11.265l-7.625-6.258
		l10.167-1.252l3.812-26.277l-10.168-11.264l7.625-1.252l1.271-8.759l-11.438-7.51l-5.084-1.251l-2.541,5.006l-7.627-8.762h3.813
		l2.541-6.257l-1.271-6.259l-8.896,1.252l-10.167-11.263l-1.271-10.013l6.354-1.252l-1.271-11.264l-5.082-6.258l1.271-6.257
		l-5.084-5.005l5.084-5.008v-11.265h-8.896l7.625-8.762l-6.354-3.754l3.812-8.761L548.973,555.255L548.973,555.255z"/>
	<path id="path3201" fill="#01796F" stroke="#FFFFFF" stroke-width="1.4173" d="M688.771,644.103l-1.271-8.76l-20.335-5.006
		l-17.792-6.258l2.542-7.51l-6.354-7.508l-6.354,1.25l-1.271-7.509l-6.354-8.76l-3.813-10.013l8.896,1.251v-6.257l7.625-5.008
		l1.271-6.257l-8.896-7.508l-2.542-8.761l6.354-7.51l1.271-10.013l-10.168,1.251l-3.813-7.508l10.166-7.51l2.543-17.521l5.084,6.258
		l5.082-5.007V485.17l8.896,7.508l12.709,7.509l6.354,3.756l16.521,6.257l13.979,3.754l19.063,2.504l13.979,6.258h8.896l3.812,6.257
		v11.265l1.271,13.767l-2.542,8.76l15.251,7.51l-5.084,8.761l-12.709-2.503l-8.896,12.515l7.628,6.258l-5.084,7.509l3.813,10.013
		l8.896,5.006l-5.084,2.503l-7.625-2.503l1.271,6.257l6.354,5.007l-6.354,12.517l-16.521-1.252l-10.166-5.008l-13.979-6.257
		L688.771,644.103L688.771,644.103z"/>
	<path id="path4172" fill="#01796F" stroke="#FFFFFF" stroke-width="1.4173" d="M765.025,850.58l-11.438-5.006l-10.167-21.271
		l5.084-5.006v-12.516l-12.709-18.771l2.542-8.761l8.896-2.502l-19.063-10.013l-7.625-7.509l-10.167-17.521l1.271-7.51l7.626-8.761
		v-6.258l-11.438-16.27l1.271-21.271l-11.438-1.251l-3.812-10.012l12.709-2.505l11.438,2.505l11.438-13.767V644.09l6.354-3.754
		l8.896,2.503l8.896-11.265l-8.896-6.257v-7.51l7.626,2.504l7.625-1.253l-10.167-5.006l-5.084-11.262l5.084-7.511l-6.354-6.258
		l8.896-12.515l12.709,5.006l5.083-10.012l-10.167-3.754l-5.083-6.258v-6.259v-25.024l-1.271-5.008l6.354-1.25l6.354,5.006h11.438
		l3.812,7.509l26.688,5.005l12.709-5.005l15.251-6.257l16.521,2.503l6.354-3.757l10.167,5.008l8.896-7.51l6.354,3.756l-2.542,6.257
		l-6.354,17.52l-1.271,10.015l-6.354,5.006l10.167,11.262l-1.271,7.509l-8.896,1.251l-5.084,7.511l-2.542,10.013l-5.083,1.252
		l-5.084-13.769l-3.812,5.007l-7.625-2.503l-3.813,2.503l10.168,7.51l2.541,10.011l-2.541,7.509h2.541l6.354,12.516h8.896
		l-1.271,13.768l6.354,5.005l-3.812,5.006h8.896l8.896,7.509l12.709,2.504l5.084-3.755l11.438,3.755l-2.542,7.511l-6.354-1.253
		l2.542,8.761l5.084,2.503l2.542,2.503l-6.354,7.508l-1.271,12.516l10.167,8.761l8.896,5.007l2.542,16.269l7.625-5.005l1.271,5.005
		l10.167,6.258l2.541,5.007l-7.625,12.516l-8.896,8.76l-8.896-3.754l-5.084-8.762l-7.625,15.02l-5.084-10.012l-7.625,13.766
		l-10.167,1.252L878.133,773h-11.438l-3.813,10.012l11.438,8.76l12.709,7.511l-1.271,16.269l-6.354,5.007l-1.271,11.264
		l6.354,13.767l3.812,7.509l-8.896-2.503l-11.438,5.006h-12.709l-10.167-7.509l1.271-7.508l-17.793-6.258l-1.271-5.008
		l-12.709-1.252l-5.083,20.021l-5.084-2.503l-6.354,2.503l-7.625-8.761l-3.813,7.51L765.025,850.58L765.025,850.58z"/>
	<path id="path6116" fill="#01796F" stroke="#FFFFFF" stroke-width="1.4173" d="M946.764,747.968l-10.168-3.754l-1.271-8.762
		l-8.896,3.755l-2.543-12.515l-11.438-6.259l-6.354-8.76l-1.271-12.516l8.896-8.761l-11.438-6.258v-7.509l5.084,1.252l5.084-7.509
		l-13.979-5.007l-2.541,5.007H883.22l-8.896-8.762h-11.44l5.084-6.258l-5.084-5.006V637.84l-8.896-1.251l-5.084-13.768h-3.813
		l1.271-5.005l-1.271-11.265l-11.438-7.508h13.979l2.541-6.259l5.084,15.018h6.354l2.542-11.262l3.812-6.258h6.354l5.084-10.013
		l-11.438-11.264l7.625-3.755l-2.542-7.509l5.084-8.761l6.354-15.019l10.167,1.251l3.812,3.755l21.605-13.767l7.625,11.264
		l33.044,1.251l3.812-3.754l10.168,5.006l16.521-13.767l1.271,6.258l-3.812,1.251l-1.271,23.773l5.084,5.007l-2.541,2.504
		l-7.627,1.25l-2.541,6.259l10.168,2.503l-5.084,6.257l-1.271,12.516l6.354,11.265v17.521l15.25,3.755l10.169,10.012l24.146,1.252
		l6.354,10.012v11.265l5.084,10.011l5.084-10.011l6.354-1.251l5.084,8.759l-3.812,10.013l-8.896,2.504v12.521l6.354,3.754
		l7.625,1.251l10.168,3.756l5.084,6.258l3.813,5.005l-7.625,8.761l-10.168,7.51l-13.979,1.251l-21.604,13.767l-3.812-6.258
		l-15.251-3.754l-11.438,7.509l-8.896-1.252l-17.791,1.252h-15.25L946.764,747.968L946.764,747.968z"/>
	<path id="path2228" fill="#01796F" stroke="#FFFFFF" stroke-width="1.4173" d="M1068.771,737.955v-10.011l17.791-15.019
		l-7.625-12.515l-16.521-5.007l-8.896-5.005l2.541-11.265l7.625-3.754l3.813-8.762l-5.084-8.761l-3.813-2.504l-8.896,12.517
		l-5.084-8.761l1.271-10.013l-7.625-11.263l-21.604-2.503l-8.896-11.265l-17.793-2.502v-16.271l-5.084-11.264v-13.767l6.354-6.258
		l-12.709-3.754l2.542-5.006l12.709-1.251l-6.354-7.511l2.541-23.774l2.541-6.257l20.336-3.754h13.979l17.792,3.754l34.313-6.258
		l31.771,16.27l5.083-6.257l15.251,5.005l16.521,10.014H1159l5.084-5.008l8.896,2.504l19.063-10.013v10.013l6.354,1.251l3.812,7.509
		l19.062-5.006l7.625,1.252l-2.541,7.509l10.166,8.762l1.271,11.263l-6.354,7.51v3.754l13.979,13.768l-1.271,5.006l-3.812,1.251
		v3.754l7.625,3.756v10.012l-7.625,15.019v3.754l7.625,10.012l-12.709,2.504l-6.354,7.509l7.625,16.27l-7.625,2.503l7.625,11.265
		l-11.438,22.522l-19.063-2.503l-1.271,6.257l3.813,3.756l-5.082,3.755l-5.084-6.259h-10.168l-16.521-3.754l-5.084,5.006
		l5.084,5.006l-8.896,7.509l-17.793-13.767l-1.271-7.509l-10.167-1.251l-11.438,10.012l-11.438,6.258l1.271,10.013l-2.541,6.258
		l-7.627-5.008l-11.438,10.013l-10.167,2.503L1068.771,737.955L1068.771,737.955z"/>
	<path id="path2230" fill="#01796F" stroke="#FFFFFF" stroke-width="1.4173" d="M1223.817,715.431l13.979-23.774l-8.896-11.265
		l7.625-1.25l-6.354-17.521l8.896-7.509h10.166l-10.166-12.516l8.896-15.017l1.271-12.518l-10.166-6.258l6.354-6.257l-12.709-15.019
		v-5.006l5.083-5.007v-12.511l-10.167-8.76l1.271-6.259l-7.625-6.257l3.812-6.259h3.812l11.438,3.755l7.626-8.761l38.126,1.251
		l22.876-3.754l8.896,7.509l7.625-10.012h20.334l13.979,5.006l11.438,13.767l5.082-1.252l5.084,3.756l5.084-2.504l8.896,5.006v6.257
		l6.354,1.253l15.252,7.509l10.166,2.503l3.813-3.754h5.084v10.011l13.979,3.755l12.709,7.51l-2.541,7.508l5.082,11.265
		l11.438,3.755l-5.084,6.258l11.438,1.25l5.082,7.51l-1.271,18.771h-5.084l-5.083-2.503l-7.626,7.508l-15.25-1.251l-21.604-3.754
		l-12.709,3.754l-10.166,6.259l8.896,10.011l-1.271,8.762l-11.438,21.271h-8.896l-19.063,2.504l-5.084-10.013h-6.354l-1.271,8.761
		l-5.083,16.271l-12.709,10.011l-6.354,2.503l-15.252,3.755l-6.354-5.006l-7.625,5.006l-8.896-1.251l-3.812-6.258l-8.896,5.007
		l-6.354-6.258l-7.625,8.76l-10.167,13.767l-20.335,1.252l-3.812-8.76l-12.709-1.252l5.084-7.51L1223.817,715.431L1223.817,715.431z
		"/>
	<path id="path3203" fill="#01796F" stroke="#FFFFFF" stroke-width="1.4173" d="M1056.06,859.341l7.625-2.503l-5.082-7.51
		l-5.084-2.503l2.541-7.509l15.252,1.252l8.896-3.755v-8.762l-5.084-6.257l8.896-2.502l-1.271-7.511l-8.896-10.011l5.082-6.259
		l1.271-8.76l-2.542-5.006l-6.354-3.755l-7.625,3.755l-8.896-3.755l17.792-6.258l6.354-17.521l12.709-8.76l8.896-8.762l8.896,10.014
		l3.813-7.511l-3.813-8.762l8.896-12.514l16.521-5.006h6.354l8.896,7.509l10.166,15.019l6.354-10.013v-3.755l6.354-5.005
		l5.084,2.502l20.334-2.502l5.084,11.262l6.354-2.502l-5.084-6.257v-6.258l16.521,2.503l15.25,3.755l-7.625,11.263l12.709,1.253
		l2.541,6.258l-8.896,10.012l-8.896-6.258l-7.625-1.252l-3.813,2.503l7.626,12.515l7.625,5.006h-7.625l-8.896,6.258l-2.541,20.021
		l-2.543,36.29l7.627,21.271l-7.627,21.273l-5.082,3.754v3.755l6.354,5.005v5.008l-5.084,2.503v26.276l-16.521,10.014l-17.793,2.503
		l-11.438-8.762h-13.979l-12.707-6.257h-11.438l-2.542,7.508l7.626,10.013l-2.542,8.761l-6.354,8.761l-3.813,12.515l-19.063-5.006
		v-8.76l3.813-2.503l-2.542-10.012l-10.167-21.272l12.709-3.755l-10.167-5.005v-15.019l13.979,3.754v-7.511l-11.438-5.005
		l17.792-12.514v-7.51l-11.438-2.503l-11.438,20.021l-10.167-7.509L1056.06,859.341L1056.06,859.341z"/>
	<path id="path4174" fill="#01796F" stroke="#FFFFFF" stroke-width="1.4173" d="M1207.296,868.1l8.896-23.774l-8.896-20.021
		l6.354-57.562l7.625-5.006l13.979,1.252l-10.168-5.006l-12.709-15.019l6.354-3.755l8.896,1.252l8.896,8.76l7.625-10.012
		l19.062,1.252l20.334-25.027l6.355,6.259l7.625-3.755l3.812,6.258l12.709,1.251l5.084-5.005l5.083,5.005l17.793-3.754
		l17.792-10.013l6.354-26.277h6.354l3.813,10.011l17.793-3.754h12.709l-2.543,8.762l-3.812,8.76l-8.896,16.27l-3.812,22.523
		l-19.062,12.516l-2.543,22.523l6.354,8.76v7.51l-8.896,17.521h-16.521l-25.418-3.754l-10.166,2.502l10.166,8.761l2.543,10.014
		l-6.354,2.502l-2.543-6.257l-1.271-5.006l-7.625-1.253l-8.896,8.762l5.082,5.006v27.529l-6.354,7.509l-2.541,25.026h-8.896
		l-6.354-13.768l-10.168-8.76l5.084-5.006l-10.168,2.503h-11.438l-3.813-7.509l-7.625,1.25h1.271v23.775l5.084,7.51l-6.354,5.006
		l-6.354-2.503l-3.813-6.257l-11.438-7.511L1207.296,868.1L1207.296,868.1z"/>
	<path id="path4177" fill="#01796F" stroke="#FFFFFF" stroke-width="1.4173" d="M926.43,1059.562l-15.252-6.258v-3.754
		l-12.709-10.012l3.813-10.013l11.438-13.767l1.271-17.521l8.896-5.006l3.813,5.006h11.438l3.813-3.755l21.604,2.503v-8.761
		l7.625-2.502l5.084-21.272l10.166-2.503l-6.354-11.264l11.438-16.27l13.98-6.258l-1.271-5.006l7.627-7.51l-2.543-12.515
		l-7.625-1.251l-7.625-13.768l10.167-12.512l17.793,2.503l6.354-10.012l21.604-7.509l21.604,6.257l11.438,7.51l13.979-20.021
		l10.167,2.505v7.508l-16.521,11.264l10.166,6.258v6.259l-12.707-3.756l-1.271,15.019l7.625,5.007l-8.896,2.503l6.354,20.021
		l6.354,8.76v3.755l-5.084,2.503v10.012v3.755l-13.979,6.257l5.083,12.516l-10.167,2.504l-7.625,15.018l7.625,8.762l1.271,6.257
		l-6.354,5.007l-2.541,10.012l5.083,10.012l-7.625,10.012l-5.084-3.754h-8.896l-6.354,5.006l1.271,15.019l6.354,2.503l3.812-5.006
		l3.813,2.503v16.27h-5.083l-8.896-7.509l-2.544,3.754l-10.166-10.012v-10.012h-5.084l-1.271-5.005l-10.167-2.503l6.354-5.008
		l-13.979-11.265l-20.335-1.251l-8.896,7.509h-15.25l-6.354,1.253l2.542,10.013l-11.438,2.503l-13.979-10.012l-7.626,5.006
		l1.271,3.755l3.813,3.754L926.43,1059.562L926.43,1059.562z"/>
	<path id="path3208" fill="#01796F" stroke="#FFFFFF" stroke-width="1.4173" d="M881.158,1074.863l-1.352,11.943l7.642,9.734
		l2.247,5.752l4.938-0.887l6.74-10.176l7.64-12.832l-3.596-9.292l0.449-10.617l-7.269-8.545l-7.562,14.297l-12.132-3.1l-0.449,9.291
		L881.158,1074.863z"/>
	<path id="path4179" fill="#01796F" stroke="#FFFFFF" stroke-width="1.4173" d="M900.029,1104.062l11.229-20.352l4.045-6.195
		l-5.393-8.848l1.797-15.043l14.379,6.192l6.29-9.291l-3.146-5.312l-0.898-3.979l5.842-3.54l14.828,9.732l11.232-3.1l-1.352-9.291
		l6.74-1.771l14.827,0.44l8.088-7.521l19.321,1.327l-3.146-0.885l11.232,6.192l6.738,5.751l-5.394,4.425l9.438,3.099l1.797,4.426
		h4.939l-0.896,9.732l10.336,9.731l2.246,4.427l-0.449,11.502l3.146,7.521l10.337,10.617l-0.449,7.078l6.289,2.213l-3.146,2.654
		l0.449,5.311l13.03,10.178l6.738,21.68l6.737,21.682l1.134,7.453l-1.58,5.377l0.896,4.424l8.985,4.865l-3.596,3.098l-0.447,3.98
		l3.146,6.639l2.696,3.537l-0.897,4.428l1.798,34.064l4.491,5.752l4.942,9.732l-1.348,11.061l-9.888,5.752l-12.582-6.637
		l-10.78,0.443l-16.179-2.213l-8.089-5.312l-8.088-0.441l-9.438,5.312l-3.146-2.213h-8.985l-11.684-5.752l-5.841-10.176
		l-0.449,0.885l-7.188-0.441l-4.94-7.08l8.537-2.211l5.392-7.521l-0.896-15.484l5.841-9.732l-6.739-6.191l-1.349-9.734l-8.09-9.729
		l-3.595-7.967l-13.479-9.73l-1.797-8.852l-9.438-6.191l-3.596-17.254l-17.973-4.867l-13.03,11.062l-4.942-3.1l-4.941,10.178h-5.394
		l-12.132-6.637v-8.404h-0.449l-5.842-6.193l-8.537-8.406l7.189-3.979l-0.449-8.404L900.029,1104.062L900.029,1104.062z"/>
	<path id="path5150" fill="#01796F" stroke="#FFFFFF" stroke-width="1.4173" d="M866.696,1299.828l-12.709-21.271l-5.083-12.516
		l6.354-17.521l8.896-15.018l11.438-12.516l3.813-12.516l-5.083-10.012v-8.762l-8.896-5.004l-8.896-2.504v-8.762l-7.625-3.754
		l6.354-12.516l2.541-12.514l1.271-10.014l12.709-3.754l8.896-3.754l7.625-1.252l13.979,12.516l1.271,8.76l13.979,6.258l6.354-8.76
		l5.084,5.006l12.708-16.27l21.605,6.256l2.542,16.27l11.438,7.512l1.271,11.262l12.709,11.264l11.438,15.018l-1.271,8.762
		l10.167,8.76l-7.625,7.51l1.271,16.27l-3.812,8.76h-8.896l-5.083,2.506l-7.626-5.008l-13.979,1.25l-6.354-10.01h-6.354
		l-7.625,3.754l-3.813,12.516l-2.541,8.76l-17.793,6.256h-6.354l-12.709,7.512h-2.541l-3.813-7.512h-3.812l-3.813,5.008
		l-1.271,12.516v6.258l-7.626,8.76L866.696,1299.828L866.696,1299.828z"/>
	<path id="path6121" fill="#01796F" stroke="#FFFFFF" stroke-width="1.4173" d="M876.863,1302.33l3.812,12.516l16.521,6.26
		l2.542,10.01l5.083,10.012l16.521,13.768l6.354,23.773l11.438,26.279l5.083,20.021l22.878,22.521l7.625,13.768l17.791,6.258
		l20.336-15.02l-3.812-17.521l-13.979-22.521l1.271-7.512l-20.335-30.031l-1.271-20.021l12.709-6.258l3.813-15.018v-21.271
		l-12.709-8.762l-15.251-6.258l-1.271-5.004l10.166-3.758l-5.082-8.758l6.354,1.25l12.709-28.781l-7.625-3.754h-12.71l-5.084-10.012
		l-13.979,2.504l-7.625,25.025l-20.336,6.258l-2.541-2.504l-16.521,8.762l-5.084-7.51h-3.813l-3.812,3.756v23.771L876.863,1302.33
		L876.863,1302.33z"/>
	<path id="path2242" fill="#01796F" stroke="#FFFFFF" stroke-width="1.4173" d="M631.581,1601.41l-2.541-18.771l-7.626-10.012
		l1.271-18.771l10.166-17.52l-2.541-11.266v-17.521l8.896-10.01h5.083l-6.354-6.258l-15.25-23.775l17.791,10.012l11.438,10.012
		l-1.271-11.262l-5.084-13.768l6.354-8.762l-6.354-17.521v-18.77l-5.084-5.006l-17.791-2.504l-1.271-13.766l20.335-7.51v-21.273
		l-1.271-5.004l2.543-3.756l1.271-8.76l19.063,2.504l6.354-8.762h1.271l8.896,11.264l-1.271,12.516h6.354l7.625,11.264h7.626
		l2.542,7.51l19.062,3.754l8.896,2.502l-1.271,6.26l-5.084,1.252v6.256l-8.896,6.258l-2.542,10.01l-13.979,8.762l7.625,7.512v10.01
		l-12.709,2.504v25.027l20.334,3.754l2.543,2.502l-2.543,6.258l-12.709,12.516l-7.625-6.258l-6.354,3.756l-7.626-3.756l1.271,15.02
		l-7.625,11.262l1.271,10.012l7.625-3.754l2.542,15.018l-3.812,7.512l-3.813,17.52l-8.896,16.271l-8.896,1.25l-15.251,16.27h-12.708
		V1601.41L631.581,1601.41z"/>
	<path id="path3218" fill="#01796F" stroke="#FFFFFF" stroke-width="1.4173" d="M682.417,1527.58l-6.354,5.006l-2.541-10.012
		l8.896-11.266l-3.813-18.77l7.625,7.508l8.896-5.006l5.084,5.006l15.25-10.012l1.271-7.51l-20.336-6.256l-1.271-23.775
		l12.709-3.756v-8.76l-8.896-10.014l13.979-7.508l1.271-10.012l11.438-6.26l-1.271-3.754l6.354-2.504l1.271-6.256l-8.896-5.006
		l8.896-7.51l5.084-2.504l2.541,7.512h7.625l5.084-2.506l10.17,11.266l-3.813,5.004l-1.271,6.258l2.541,3.756h7.625l3.812,6.258
		l21.604,3.754l1.271,5.006l-6.354,1.252l-3.813,6.256l13.979,2.504l1.271,6.26l-11.438,2.502c0,0,2.545,7.508-2.541,7.508
		c-5.084,0-10.168-5.004-10.168-5.004l-3.812,5.004l-7.626-1.25l-3.813,7.508l-2.541,7.51l-8.896,3.754l-13.979,8.762l-8.896,6.258
		l-1.271,8.76l-2.544,15.02l-10.166,6.258l-5.084,11.262l-6.354,7.51L682.417,1527.58L682.417,1527.58z"/>
	<path id="path4189" fill="#01796F" stroke="#FFFFFF" stroke-width="1.4173" d="M725.628,1481.277l16.521-8.762l16.521-7.508
		l5.083-13.768h7.626l2.542-3.754l15.25,3.754l2.542-8.76h8.896l-1.271-7.51l-15.25-2.502l3.813-7.51l6.354,1.25l-1.271-6.256
		l-20.336-2.504l-5.082-6.256l-10.168-1.252l1.271-7.51l5.083-3.754l-11.438-13.768h-8.896l-5.083-6.258l-16.521,10.012
		l-20.334-3.754l-1.271-5.006h-5.084l-7.625-12.516h-8.896l1.271-12.516l-7.625-10.012v-15.018l11.438-12.516l1.271-6.258
		l11.438-6.26l2.541-6.256l11.438-1.252v-15.018l15.251,1.252l5.083-7.51l6.354,2.504l-1.271,30.031l17.792,7.51l10.167-2.504
		l6.354-3.756l7.627,5.008l3.812-8.762l15.251-7.508l17.792,3.754l17.793,10.012l12.709,11.264l15.25,6.258l15.251,6.258
		l11.438,10.014l7.625,17.52l-7.625,8.762l-12.709,6.256l-21.605,15.02l-11.438,11.264l-1.271,8.76l-15.251,2.506l8.896,13.764
		l-3.813,10.014l1.271,11.262l5.084,7.512l-15.252,1.25l-13.979,7.51v8.76l-2.542,8.764l-8.896-2.506l-7.625-1.252l-16.521-7.51
		l-8.896,5.006l-1.271,6.262l-15.251,6.256l-1.271-11.266L725.628,1481.277L725.628,1481.277z"/>
	<path id="path2245" fill="#01796F" stroke="#FFFFFF" stroke-width="1.4173" d="M728.387,1479.685l17.977,1.771l-1.797,8.85
		l17.973-5.309v-3.541l10.784-7.078l12.581,5.309l-3.597,14.158l-12.58,1.771l-12.58,17.695l5.392,14.158l-3.595,10.619
		l-17.976,3.539l-7.188,12.387l-1.798,14.158l5.393,7.078l16.178-15.928l8.984-3.541l7.189,3.541l30.555,1.77l1.797,12.387
		l-17.974,17.697l-5.396,10.619l12.581,7.076v10.619l-12.581,21.234l-10.783,12.391v26.545l-17.974,21.236l1.797,19.467
		l-16.176,5.312l-14.378,8.85l-16.176-3.539l-12.581-10.619l-23.365-5.309l5.392-8.85l-7.188-8.852c0,0-7.188-19.469,1.798-19.469
		c8.985,0,21.567-7.076,21.567-7.076l-12.581-5.312l-12.581-1.77l1.797-17.697l8.986-10.617l-5.396-8.85l-5.392,12.389l-8.986,1.771
		l-1.798,12.389l5.393,5.312l-8.983,10.617l-14.379-23.008l-3.598-17.695v-24.773l0,0l17.977-8.852l8.984-10.619l7.188,3.541
		l12.582-26.547l5.392-14.158l-3.595-15.926l17.973,1.771l12.582-15.93l10.783-7.078l1.798-14.156L728.387,1479.685
		L728.387,1479.685z"/>
	<path id="path3216" fill="#01796F" stroke="#FFFFFF" stroke-width="1.4173" d="M785.9,1626.574l3.595-17.695l-12.581-7.078
		l19.771-21.234l5.394-5.312l-3.595-14.158l-26.961,1.771l-8.985-5.312l-25.162,14.156l-3.595-8.848l1.797-17.697l23.365-5.311
		l3.595-10.617l-7.188-15.928l14.381-15.93l10.781-1.771l5.396-14.158l16.176,1.771l5.394-15.93l25.161-7.078l1.798-12.391
		l12.582,12.391l10.782,14.156l-1.798,17.697l14.379,5.311l8.986,28.314l-12.581,7.078v15.928l-10.784,21.236l-7.188,19.467
		l-3.597,10.619l3.597,24.773l-32.354,10.617L785.9,1626.574z"/>
	<path id="path4187" fill="#01796F" stroke="#FFFFFF" stroke-width="1.4173" d="M791.292,1635.423l17.974,8.85l8.986,8.85
		l1.797,14.158l-5.392,15.928l-8.986,12.389l-19.771-8.85l-5.396,12.389l-5.392,17.695l-12.581,5.312l3.595-19.467l7.189-14.158
		v-15.928l7.188-14.158L791.292,1635.423L791.292,1635.423z"/>
	<path id="path4190" fill="#01796F" stroke="#FFFFFF" stroke-width="1.4173" d="M827.238,1644.269l16.176-10.615l5.394,10.615
		l-1.798,12.391l-10.782,12.391l-8.985,8.85v-19.469L827.238,1644.269L827.238,1644.269z"/>
	<path id="path4192" fill="#01796F" stroke="#FFFFFF" stroke-width="1.4173" d="M847.009,1674.355l-16.176,15.93l-5.393,15.928
		l14.379,7.078l10.782-12.391l-3.597-12.389L847.009,1674.355L847.009,1674.355z"/>
	<path id="path5169" fill="#01796F" stroke="#FFFFFF" stroke-width="1.4173" d="M852.4,1612.417l16.177-17.697l14.378-21.234
		l1.798-31.855l-1.798-23.006l-7.189-19.469l-7.188-19.467v-19.469l-12.581-10.619l-12.582-14.154l1.798-15.93l10.784-17.695
		l16.176-8.852l7.188-8.85l25.163-1.771l5.392,19.469l10.784,38.934l17.973,21.236l12.581,15.928l7.189,10.617l-1.797,19.469
		l-5.396,5.311v23.008l-7.188,15.928l-3.596,12.391l-3.597,15.926v15.93v12.389l-12.581,8.854l-7.188,14.154l-21.568,7.078
		l-1.797,10.617l-10.784,5.312l-14.378,8.85c0,0-5.394-1.771-5.394-8.85s-5.395-15.93-5.395-15.93l8.986-12.389L852.4,1612.417
		L852.4,1612.417z"/>
	<path id="path5171" fill="#01796F" stroke="#FFFFFF" stroke-width="1.4173" d="M863.185,1686.744l8.984-12.387l10.784,14.154
		l-7.188,7.08L863.185,1686.744z"/>
	<path id="path5173" fill="#01796F" stroke="#FFFFFF" stroke-width="1.4173" d="M980.01,1529.24l-7.188,23.006l-8.987,26.547v24.775
		l17.975,19.467v-23.006v-23.01l8.985-23.006l1.798-12.389L980.01,1529.24L980.01,1529.24z"/>
	<path id="path5175" fill="#01796F" stroke="#FFFFFF" stroke-width="1.4173" d="M890.146,1660.199l-5.395,14.156h17.975
		L890.146,1660.199z"/>
	<path id="path6152" fill="#01796F" stroke="#FFFFFF" stroke-width="1.4173" d="M977.266,1352.384l10.166-12.516l5.084-20.021
		l-10.169-12.514l-17.791-12.516l2.541-12.516l15.25-27.529l20.337,7.51l20.334,17.52l20.335-7.508l12.709,2.504l27.959,7.508
		l2.541,10.014l-2.541,12.514v10.012l-7.625,22.523l22.875-2.502h12.709l-10.166,15.018v12.516l5.084,17.521l-15.252-7.51
		l-15.25,5.006l-27.959-2.504l-15.252-10.012l-7.626,10.012c0,0-7.625,7.51-17.793,2.504
		C997.598,1372.408,979.807,1354.886,977.266,1352.384L977.266,1352.384z"/>
	<path id="path6154" fill="#01796F" stroke="#FFFFFF" stroke-width="1.4173" d="M1002.682,1407.447h27.96l12.709,15.018
		l10.168,17.521l-7.625,15.02l-17.793,7.508l-12.71-2.504l-2.541-22.521L1002.682,1407.447L1002.682,1407.447z"/>
	<path id="path6156" fill="#01796F" stroke="#FFFFFF" stroke-width="1.4173" d="M1045.894,1392.429l33.043,2.502l15.25,12.516
		l-2.541,15.02l-22.877-10.012L1045.894,1392.429L1045.894,1392.429z"/>
	<path id="path6158" fill="#01796F" stroke="#FFFFFF" stroke-width="1.4173" d="M1091.646,1467.511l-25.418-7.51v-20.021v-12.514
		l20.334,10.012l7.627,12.516L1091.646,1467.511z"/>
	<path id="path6160" fill="#01796F" stroke="#FFFFFF" stroke-width="1.4173" d="M997.598,1480.027l33.044,2.502l10.168,22.523
		l2.541,20.021l10.168,12.516l-2.541,27.531l-5.084,27.525l-17.793,12.518l-15.25,17.52l-7.627-2.502l2.543-25.025l2.541-27.529
		l2.543-25.027l-2.543-25.025L997.598,1480.027z"/>
	<path id="path7138" fill="#01796F" stroke="#FFFFFF" stroke-width="1.4173" d="M1107.619,1375.271l-7.188-10.615l1.801-10.619
		l10.781-19.467l-12.582,1.77l-16.177-3.537l-5.392,5.311l3.595-14.158l-1.797-12.387l3.594-10.619l-5.392-21.234l19.771,5.309
		l10.784-8.848l10.784,3.539l7.188-7.078l-5.394-15.928l-3.595-10.619v-10.619l3.595-14.156l1.797-12.389l16.179,3.539
		l10.781,17.695l10.784,21.234l3.597,15.928v14.158l12.58,17.697l-1.797,12.389l14.379,5.312l-19.771,1.77l1.798,19.467h-14.379
		l-10.784,7.078l-5.393,15.932l-12.58,17.693v12.391l-7.189-3.539v-8.852L1107.619,1375.271L1107.619,1375.271z"/>
	<path id="path2436" fill="#01796F" stroke="#FFFFFF" stroke-width="1.4173" d="M1095.038,1387.662l16.176,5.311l3.596,12.391
		l-5.393,1.77L1095.038,1387.662L1095.038,1387.662z"/>
	<path id="path2438" fill="#01796F" stroke="#FFFFFF" stroke-width="1.4173" d="M1105.822,1423.054l10.782,19.469l7.188,10.617
		v7.078l-3.594,1.771l-3.597,17.697l5.394,19.467l16.176,17.697l10.784,5.312v10.615l1.797,3.539h14.379l8.986-10.615l3.595-10.619
		v-10.617l-3.595-10.619l-28.757-47.781l-1.798-10.617L1105.822,1423.054z"/>
	<path id="path2440" fill="#01796F" stroke="#FFFFFF" stroke-width="1.4173" d="M1260.392,1580.56l-10.783-7.076l-3.597-21.236
		l-1.798-19.469v-7.078l-12.582-19.467l-8.982-24.775l-14.379-12.389l-10.783-15.93l-7.189-14.156v-5.311l-7.188-8.852l-8.986-7.076
		l-26.96-19.469l5.396-8.852l-12.582-12.387l1.799-10.619l5.392-21.236l17.974-7.076h7.188l1.798-17.697h14.378l12.582,3.539
		l7.188-8.852l21.564-5.309l10.783,5.309l3.596,10.619l-7.188,12.391l8.985,12.389l8.984,17.695l8.985,15.93l7.188,12.389v-14.156
		h14.377l7.188,5.311v15.928l12.582,1.771l3.595,17.697l1.799,19.467l5.393,14.158l-1.799,12.389l12.582,8.85l3.597-8.85l1.797-8.85
		l-5.394-7.078l1.797-15.93l14.382-5.311l14.377,15.928l12.582,30.086l3.595,21.234l-12.581,23.01l19.771,14.154l-3.597,14.158
		l-1.797,8.85l5.394,21.236l1.798,8.85v8.85l5.394,8.85l-3.595,10.619l3.595,17.695l10.782,21.236l-5.395,10.617l-5.393,7.078
		l5.393,12.391l-12.58,3.537l-10.781-3.537l3.594-10.619h-16.176l-10.783,10.619l-19.771,3.537l-10.78,10.617l-17.978,10.619
		l-3.595-14.156l8.986-12.391l-14.379-12.389v-15.928l-10.783-14.158l-3.597-24.775l-8.985-8.85L1260.392,1580.56L1260.392,1580.56z
		"/>
	<path id="path4391" fill="#01796F" stroke="#FFFFFF" stroke-width="1.4173" d="M1307.696,1414.955l17.792-22.523v-17.521
		l7.626-25.025l35.585-25.025l-10.167-47.555l25.417-12.516l-5.083-22.521l-12.709-32.535l5.084-20.021l-17.793-17.52l25.418-30.033
		l-30.501-67.575l-15.251,2.504l-17.793-30.035h-7.625l-10.167,10.014l10.167,42.546l5.083,27.529l-7.625,10.012v15.018
		l-15.25-5.006l-17.793,15.018l-17.793,30.031l-7.625,22.525l12.709,22.521l2.23,31.65l-3.132,8.092l-9.27,0.303v7.51
		l-20.336,25.025l15.252,12.518l-5.084,10.012l2.541,10.01l15.252,32.537l15.25,20.021l2.543-10.014l17.791,2.502l2.543,15.02
		L1307.696,1414.955L1307.696,1414.955z"/>
	<path id="path7308" fill="#01796F" stroke="#FFFFFF" stroke-width="1.4173" d="M1396.659,1712.783l-10.168,12.516l-17.792-7.51
		l-5.084-10.012l-15.25-22.523l7.625-10.012h12.709l5.083,10.012l17.793,2.504v-10.012l7.625-20.021l-7.625-12.516l-5.084-25.025
		l-2.542-12.518l-5.083-25.023l-5.084-17.521l5.084-25.025l15.251,5.008l15.25-7.512h25.418l15.251,10.014l22.876,12.514
		l12.709,27.531l12.709,35.037l-5.084,10.012l15.251,32.535l15.251,42.547l2.542,12.518l-2.542,27.527v17.521l-2.542,20.021
		l2.542,25.027l7.625,27.529l2.542,27.529l2.542,22.521l12.709,22.525l-12.709,5.006l-12.709,15.018l-7.625-5.006l-2.542-12.514
		l-7.625-17.521l2.541-10.014l-7.625-2.502l-7.625,5.006l-12.709,2.504l-15.251-5.006l-2.542-10.014l-10.167-25.025l-7.625-5.006
		l-10.167,12.514l-5.084,10.014l-10.167-2.502l-12.709,22.521l-7.625,2.504l-7.626,10.012l2.542,20.021l-7.625,17.521l-2.542-25.027
		l-7.625-20.02l-2.542-10.012l15.251-17.521l10.167,10.01l7.625-15.016l-10.167-20.021l-10.167-17.52l5.084-10.014l-12.709-12.516
		l-5.084-15.018l-7.625-20.021l12.709-12.516h20.334v-15.02h12.709v-7.508L1396.659,1712.783L1396.659,1712.783z"/>
	<path id="path8281" fill="#01796F" stroke="#FFFFFF" stroke-width="1.4173" d="M1310.238,1439.98l-5.084-25.025l12.709-15.02
		l10.167-17.52l2.542-30.033l38.127-27.529l-2.542-15.018l-5.083-27.529l22.876-17.521l-5.084-20.021l-7.625-32.533v-17.521
		l-17.793-25.025l22.876-30.031l-10.167-25.027l-17.792-45.049l5.083-7.511l20.335-20.021h12.709l7.625,12.515l5.084,20.021
		l5.083-17.521l5.084-10.011l12.709,5.006l-7.626,17.521l5.084,17.52l5.084,12.516l5.083,45.049l12.709,17.521l7.625,15.02
		l-5.083,10.014l7.625,7.508l2.542,10.01l-17.793,12.518l2.542,20.02l2.542,17.521l2.542,12.516l10.167,12.516l-7.626,40.043
		l10.168,20.021l20.334,10.012l-5.084,12.516l7.626,30.033l15.25,15.016l2.542,20.02l5.084,25.027l-7.626,5.006l7.626,25.027
		l5.083,30.031l5.084,25.027v15.018l5.083,20.021l5.084,20.021v22.523l-12.709-5.008l7.625,27.529l10.168,40.045l7.625,25.025
		l-10.167,17.521l-5.084-12.516l-7.625-22.523l-7.626-25.027l-12.708-25.025l2.541-7.508l-5.083-20.023l-10.167-35.037
		l-10.168-10.012l-25.417-17.521l-33.044-7.51l-22.876,10.012l-15.251-12.516l-10.167-15.016l7.625-20.021l-2.541-20.021
		l-12.709-25.027l-15.251-22.521l-7.625,2.504l-10.167,15.016l7.625,20.021l-5.084,10.012l-10.167-12.514L1310.238,1439.98
		L1310.238,1439.98z"/>
	<path id="path5362" fill="#01796F" stroke="#FFFFFF" stroke-width="1.4173" d="M1259.401,1690.259l25.418-5.006l5.084,25.025
		l-7.625,22.523l-15.252,25.027l2.543-17.521l2.541-35.035L1259.401,1690.259z"/>
	<path id="path5364" fill="#01796F" stroke="#FFFFFF" stroke-width="1.4173" d="M1294.987,1712.783l27.96-15.018l12.709-10.012
		l12.709-2.502l17.792,30.031l20.334,10.012l7.626-2.504l5.083-12.514l12.709,17.52v7.508H1399.2l-2.542,17.521h-22.876
		l-10.167,12.516l10.167,25.025l20.335,20.021l-7.626,12.516l12.709,20.021l10.167,12.516l-5.083,17.52h-10.167l-2.542-10.012
		l-17.792,20.021l5.083,22.521l16.229,18.529l2.541,12.469l-12.152,14.535l11.146,20.02l18.804,23.535l-11.108,14.006l12.644,20.021
		l5.231,15.906l-4.896,9.908l7.321,16.248l10.167,25.027l-2.541,12.514l-7.626-7.508l-10.167-27.531l-12.709-15.02l-10.167-17.52
		l-7.625-17.52v-15.016l-43.211-50.055L1335.66,1918v-17.52l-7.625-17.521l-15.251-20.02l-2.542-10.014l12.709-15.018l2.541-17.521
		l5.084-15.018l5.084-22.521l-2.542-27.531l-10.167,22.523l-12.709-7.508l10.167,17.521l7.625,20.021l-12.709,25.025l2.542,2.502
		l-25.418-2.502l2.542,12.516h-15.251l-2.542-12.516l7.626-22.523l5.083-20.021l-12.709-10.012L1294.987,1712.783L1294.987,1712.783
		z"/>
	<path id="path3682" fill="#01796F" stroke="#FFFFFF" stroke-width="1.4173" stroke-miterlimit="10" d="M1306.551,1761.345
		l25.418-5.006l5.082,25.025l-7.625,22.523l-15.25,25.027l2.541-17.521l2.543-35.039L1306.551,1761.345z"/>
	<path id="path4163" fill="#E11837" stroke="#FFFFFF" stroke-width="1.4173" d="M442.22,1013.261v-16.268l-0.102-5.03l1.373-3.73
		l17.792,1.252l10.167,1.251l6.354,7.508v8.76l2.542,8.76l19.063,11.263l-5.084-13.766l10.167-1.251l2.542,6.257l6.354,3.754
		l17.793-11.262l6.354,3.754l-1.271,6.257l6.354,7.508v-10.011l27.96-1.251l13.979,2.503l8.896,11.262l1.271,13.766l-11.438-8.76
		l-8.896-11.263h-30.501l-1.271,5.006h25.418l12.709,8.76l16.521,12.514l6.354,5.005l5.084,2.503l-6.354,2.503l-1.271,6.257h-12.709
		l-1.271,6.257l-8.896-2.502v17.518l10.167,6.258l-2.541,6.258h-8.896l-2.542-6.258l-2.542,6.258l-12.709-1.25l-2.541-15.016
		l-15.251,13.764h-6.354l-2.542-11.262h-5.083l-2.542,5.006l-12.709-6.258l-2.542,5.006l7.625,5.004l-7.625,3.756l-5.084-1.252
		v-6.256l-10.167-1.25l-5.083-13.764l-12.709-8.76l-1.271-7.509l-17.792-1.251l-2.542,3.754l-15.251-13.765l-2.542-7.509
		l-3.812-7.508l8.896-8.76V1013.261z"/>
	<path id="path5128" fill="#E11837" stroke="#FFFFFF" stroke-width="1.4173" d="M494.735,1090.347l8.088,1.771l0.896,6.191
		l5.396,2.654l8.088-4.424l-8.986-5.311l3.597-4.424l13.479,5.311l1.797-5.311l4.493,0.885l2.696,10.617l7.188,0.885l14.379-14.154
		l2.695,15.041l12.581,1.77l2.696-7.076l3.595,6.191l8.088,0.885l3.595-6.189l-10.781-5.312v-20.354l8.983,3.539l1.798-6.191h12.581
		l0.898-6.192h2.693l7.188,1.771l2.695,7.079l26.062,5.308l8.986,10.619h7.188l4.492,10.617l27.857,4.424l16.177,11.504
		l8.088,14.158l0.897,16.814h-7.188l-0.896,13.27l-7.188,6.193l9.886,6.191l-4.492,11.504l-5.394,16.814l-6.29-2.654l-9.886-6.193
		l-4.493,12.389l-4.493-0.887l-0.896-6.189h-5.396l-6.29-9.732l-8.088-0.885l6.29,7.963l-7.188,0.885l-9.889,6.193l-0.896-9.732
		h-8.089l-5.396,4.424l-4.491-7.076l-8.089-0.887l-15.274,15.041l-20.67,0.889l-1.799,5.311l8.09,4.424l-0.897,4.424l-2.695,4.426
		l-11.684,9.732h-8.986l-4.492-5.311h-13.479l-4.493-7.965l8.987-9.73l-11.685-2.654l-2.695-9.732v-16.814l-6.291-4.424l5.394-5.311
		l14.378,10.617l-5.392-9.732l-9.888-15.043l0.897-12.389h-2.694l-4.493-7.963l-7.188-6.193l-21.566-0.887l-0.896-3.539l5.393-4.424
		h6.29l0.898-3.539l-9.888-8.852L494.735,1090.347L494.735,1090.347z"/>
	<path id="path6099" fill="#E11837" stroke="#FFFFFF" stroke-width="1.4173" d="M597.182,1312.449l0.898-5.312l-12.581-7.078
		l-6.291-15.928l-17.973-17.697l12.58,0.887l7.188-17.697l1.797-9.73l-8.982-3.537l-10.784,7.963l-1.797-1.771l2.691-7.965v-4.424
		h5.396l16.176-10.617l1.797-7.965l-8.984-5.309l1.799-6.193l17.072,0.885l17.073-14.156l8.088,0.887l6.291,5.309l5.396-4.424
		l6.291,0.885l1.797,9.732l8.088-5.311l9.885-0.887l-5.392-9.729l5.392,0.885l7.189,10.617h4.493l2.692,7.08h3.599l3.595,13.27
		l-4.493,15.043l-11.683,6.193c0,0,3.595,7.965,0,7.965c-3.599,0-11.687,0-11.687,0l-5.392,19.467l10.783,6.193l4.49-7.963
		l6.291-3.539l11.686,7.078l4.493,4.424l9.886-8.85l11.682,6.191l-4.492,3.539l-0.896,8.852l11.684,3.537l-4.491,1.771v11.502
		h-9.889l-3.594,7.965l-10.784,4.424v7.963l-3.595,0.887v4.428l-7.188,5.309l-3.596,14.158l-3.595,5.311l-0.898,3.537l-8.982,1.771
		h-12.581l-1.8,9.73h-2.693l-9.886-6.193l-14.38,0.887l-12.58-7.078l-1.8-6.191l8.091-7.08l-13.479-8.85L597.182,1312.449
		L597.182,1312.449z"/>
	<path id="path2215" fill="#E11837" stroke="#FFFFFF" stroke-width="1.4173" d="M593.455,938.177l10.167-16.27l-1.271-15.019
		l-5.084-11.263l-7.625-2.505v-5.006l3.813-3.754l-3.813-5.007l2.541-15.018l1.271-22.523l-17.793-18.771l8.896-11.265
		l-17.793-16.27l11.438-12.516l2.542-15.02l-8.896-7.508l8.896-6.257l3.812,2.503l6.354-10.013l11.438,3.754l1.271-6.257
		l5.083-8.762l3.812-6.257l2.541-6.257l5.084-3.755l6.354-8.762l6.354,1.253v-5.008l-8.896-7.509l-1.271-6.257l1.271-6.257
		l3.812,5.005l12.709-7.508l1.271-7.511l7.626,3.756l10.167,13.766l15.251-22.522l12.709-5.008l7.625,3.756l1.271,11.265h11.438
		V702.9L718,717.924v6.258l-6.354,8.762l-1.271,7.509l8.896,20.021l26.688,16.27l-6.354,2.503l-3.812,8.761l11.438,20.021
		l1.271,8.76l-3.812,6.257l8.896,22.524l8.896,3.755l6.354,2.502l2.542,3.756l-10.168,5.004v11.265l-7.625,2.503l-6.354,5.008
		l-5.084,13.765l1.271,18.771l-8.896,1.253l-5.084-5.007l-1.271,6.259h-3.812l1.271,8.76l-13.979,13.768l-10.168,6.257h-3.812
		l-11.438-7.509l-7.625,7.509h-3.812l-7.626-5.006v8.762l-6.354,6.257l-2.543-10.011l-5.082-2.505l-11.438,12.516l-7.625,2.503
		l-6.354,6.257l-3.812-7.509l-5.084,8.761h-7.625l-7.625-6.258l-2.542,3.754l-5.084-7.508L593.455,938.177L593.455,938.177z"/>
	<path id="path3189" fill="#E11837" stroke="#FFFFFF" stroke-width="1.4173" d="M592.185,939.428l-20.334,6.257l-12.709,1.254
		l1.271,12.514l11.438,13.768l15.25,13.767l1.271,7.509l5.084,6.259l-1.271,12.514l13.979,18.771l15.251,10.012l15.251,3.756
		l6.354,7.509H629.04l10.168,10.013l6.354-3.755l6.354,12.515l22.876,6.257l7.625-6.257v-13.766l16.521-2.505l11.438-5.006
		l29.229,5.006l-7.625-21.271l12.709-13.766l-25.418-5.006l-8.896-11.265l-6.354-13.767l-8.896-5.005l-6.354-16.271l-12.709-6.259
		l10.168-8.76l-24.146-1.251l-2.542-10.012l-6.354-2.504l-12.709,12.516l-3.813-2.503l-8.896,10.011l-3.813-6.257l-5.083,11.265
		l-7.626-2.505l-6.354-5.005l-3.812,5.005l-5.084-7.508L592.185,939.428L592.185,939.428z"/>
	<path id="path4160" fill="#E11837" stroke="#FFFFFF" stroke-width="1.4173" d="M674.792,1078.333l6.354-7.509v-12.516l21.604-2.503
		l7.625-5.006l27.96,6.258l-6.354-22.523l12.709-11.265l-21.605-6.257l-6.354-1.251l-12.709-23.774l-10.168-5.008l-3.812-16.268
		l-13.979-8.762l10.166-7.508l-21.604-2.505l1.271-6.257v-7.509l10.166,7.509l11.438-8.76l15.251,7.508l11.438-5.005l7.625,12.514
		l10.169-5.006l10.167-2.503l3.812,6.257l6.354-18.771l11.438,17.521l-10.167,8.762l8.896,2.502l19.062,2.503l1.271,23.774
		l10.167-2.503l6.354,6.258h8.896l6.354-5.006h6.354l1.271,10.013v8.761l-2.541,7.51l11.438,32.533l5.084,5.008l-5.084,2.503
		l-21.605,10.013l8.896,15.016l-3.813,13.768l-11.438-10.012l-3.813,6.258l-3.812,16.27l-8.896-2.502l5.084-15.02l-11.438-6.256
		l-6.354-7.51l-19.062-3.755l-7.626,11.263l-1.271,6.258l-1.271,17.521l-6.354,7.51l-8.896-5.006l-1.271,10.01l-3.812,6.258
		l-12.709-6.258l-1.271-11.262l-3.812-12.514l-10.167-6.26L674.792,1078.333L674.792,1078.333z"/>
	<path id="path5131" fill="#E11837" stroke="#FFFFFF" stroke-width="1.4173" d="M811.063,1293.867l-17.976,5.311l-10.784,7.078
		l-3.595,8.852l-12.271-9.152l-9.297-12.084l5.394-10.617l7.188-10.617l-10.783-10.619l-8.986-15.928l-12.581-8.85l-5.394-23.008
		l16.177-12.389l12.582-23.008l10.782-15.928l17.975,1.77l16.176,12.389l7.188,12.389h14.379h12.581l5.393,12.391l1.798,12.389
		l5.395,19.467l-7.188,15.93l-10.562,8.025l6.881,10.707l-23.274,6.043L811.063,1293.867L811.063,1293.867z"/>
	<path id="path6102" fill="#E11837" stroke="#FFFFFF" stroke-width="1.4173" d="M707.835,1142.154l16.521,1.25l10.166,8.76
		l11.438,5.008l25.418,7.508l-5.084,8.762l-17.792,28.781l-16.521,11.264l3.812,22.523l15.25,11.264l7.626,17.52l12.709,8.762
		l-13.979,18.771l10.167,8.76l3.812,7.51l-6.354,5.006h-13.98l-15.25-3.754l1.271-16.27l1.271-15.02l-6.354-2.502l-3.813,6.256
		h-16.521l-10.167-6.256v-5.006l6.354-2.506l-11.438-7.508l-10.167,8.76l-12.709-10.01h-7.625l-7.626,10.01l-11.438-7.508
		l7.625-18.771l15.251,1.252l-2.542-7.51l11.438-6.258l3.812-16.27l-6.354-11.264l6.354-12.516l17.792,7.51l6.355-26.279
		l-5.084-10.012l6.354-5.006L707.835,1142.154L707.835,1142.154z"/>
	<path id="path7073" fill="#E11837" stroke="#FFFFFF" stroke-width="1.4173" d="M832.383,1272.298l-10.168,1.469l-6.354,11.752
		l5.083,10.283l13.979-1.471l10.168,11.752l5.083-7.346l-2.542-13.223l-5.083-8.812L832.383,1272.298L832.383,1272.298z"/>
	<path id="path2229" fill="#E11837" stroke="#FFFFFF" stroke-width="1.4173" d="M705.293,941.931l20.335-17.521l-2.542-10.011h5.083
		v-7.51l7.626,7.51l7.625-1.251l-1.271-21.272l3.812-13.767l17.792-7.509l-2.541-11.264l11.438-5.007l-3.813-3.755l7.625-2.503
		l8.896-1.251l3.812-7.509l7.626,8.761l7.625-1.252l5.084,3.754l3.813-21.271l12.709-1.252l3.812,5.008l15.251,6.257v6.258
		l10.167,10.013h11.438l2.542-3.755h10.167l13.979,8.76l7.625,3.755l-7.625,5.007l1.271,11.263l5.084,10.013l-3.813,8.761
		l-1.271,7.51l7.625,7.508l-13.979,2.503l-5.083-5.006l-3.812,3.754l5.084,2.504l2.542,23.775l-6.354,15.019l-6.354,1.252
		l3.812,6.258l-7.625,12.515l-10.168,7.508l-6.354-5.005l-12.709-15.018l-1.271,6.257l-7.625-1.252l-10.167,21.271l-6.354-5.005
		l-5.084,3.754l-10.166,2.504l-7.627-7.51l-10.166,2.503v-25.03h-17.793l-10.166-3.754l8.896-10.012l-6.354-10.012l-3.812-1.253
		l-7.625,13.768l-3.812-7.51l-10.168,5.007l-8.896,5.006L705.293,941.931L705.293,941.931z"/>
	<path id="path5143" fill="#E11837" stroke="#FFFFFF" stroke-width="1.4173" d="M899.74,865.597l-13.98-12.516l-3.812-13.766
		l-2.542-7.51l-1.271-10.012l8.896-5.006l1.271-16.271l-25.418-17.519l3.813-5.007v-6.258l10.167,1.251l10.168,8.762l8.896-1.253
		l8.896-12.514l6.354,6.258l5.084-12.517l10.166,8.762l11.438-5.007l8.896-12.515l6.354-10.013l27.96-5.005l-17.793,2.502
		l13.979-2.502h16.521l8.896,2.502l12.709-8.761l12.71,2.503l5.084,8.761l13.979-8.761l7.625-6.259h13.979l-2.541,10.015
		l11.438,12.515v8.76l-3.813,6.258l-1.271,3.755l-17.793,10.013l10.168,2.503l2.541-3.755l8.896,2.504l5.084,10.011l-1.271,6.258
		l-8.896,5.007l12.709,8.761l2.541,7.509l-8.896,1.252l-3.812,5.005l6.354,5.006v5.007v2.503l-8.896,2.503l-15.252,1.252
		l-3.812,6.258l7.625,3.754l2.542,5.007l-6.354,3.754l-15.25,3.755l-15.252,3.755l-3.812,10.012l-16.521-1.252l-12.709,12.516v3.755
		l7.625,8.762l10.168,2.502l2.541,8.76l-2.541,6.258l-6.354,5.007c0,0,7.625,3.754-1.271,6.257
		c-8.896,2.505-11.438,3.756-11.438,3.756l-6.354-6.259l-3.813-8.761l-11.438,1.253l-7.625-8.762H951.84l-1.271-10.012l7.626-6.259
		l-15.251-3.754l-3.813-10.013l-8.896-1.252l-6.354-12.514l-7.625-7.51l-3.812,1.251l-2.541,2.504L899.74,865.597L899.74,865.597z"
		/>
	<path id="path2231" fill="#E11837" stroke="#FFFFFF" stroke-width="1.4173" d="M860.342,985.729l12.709-11.264l5.084-7.508
		l-5.084-8.762h7.626l5.083-13.768v-13.768l-2.542-12.514l-6.354-3.756l5.083-3.754l6.354,7.508l11.438-2.502h3.812l-7.625-8.76
		l3.813-16.271l-3.813-8.762v-12.514l5.083-5.005l7.625,1.251l8.896-7.511l11.438,18.771l8.896,3.754l6.354,10.013l12.709,5.007
		l1.271,3.754l-7.626,3.756l6.354,7.508l-8.896,2.503l13.979-1.252l7.625,8.76l11.438-3.754l2.542,12.516l7.625,3.754l-2.542,3.757
		l-7.625,12.514l3.812,11.264l-6.354,2.503l-7.625,20.021l-5.084,3.754l-2.542,6.259l-1.271,2.503l-16.521-1.251l-8.896,3.754
		h-7.625v-2.503l-8.896-1.251l-3.813,2.502l-1.271,16.271l-7.625,12.516l-11.438-10.013l-1.271-6.257l-2.542,8.76l-10.167-2.503
		l-3.813-3.755l7.625-3.754l-3.812-8.762l-8.896,3.756l-2.541,6.258l-3.812-7.51l8.896-12.517L860.342,985.729L860.342,985.729z"/>
	<path id="path3206" fill="#E11837" stroke="#FFFFFF" stroke-width="1.4173" d="M817.132,1077.082l-11.438-17.522l29.229-10.011
		l-15.25-36.29l3.813-8.76v-11.265l8.896-23.774l7.625,2.503l1.271-6.257l15.25,18.771l17.793,7.509l-8.896,8.76l2.542,7.51
		l13.979-8.762l5.084,6.259l-8.896,8.76l12.709,3.755l15.251,5.007l-1.271,5.006l-3.813,11.265l-8.896,7.508l-2.542,11.265
		l-8.896-2.504h-6.354l-2.542,8.761v12.513l-16.521,7.512l-6.354,6.258l-6.354,7.508l-10.167-1.252v-7.508l-8.896,6.258
		l-7.625-6.258L817.132,1077.082L817.132,1077.082z"/>
	<path id="path2235" fill="#E11837" stroke="#FFFFFF" stroke-width="1.4173" d="M722.994,1125.742l5.393-19.469l10.783,5.312
		l7.189-8.85v-15.93l8.984-19.466l17.976,5.311l17.973,12.388l-5.392,17.697l10.782,1.77l5.394-19.471l21.567,14.158l17.974,3.539
		l3.595,8.85l7.188,5.312v12.389l-1.798,10.619l-8.985,14.156l-3.595,14.156l-12.581-14.156h-23.365l-17.974-5.312h-14.379
		l-16.179-3.539L722.994,1125.742L722.994,1125.742z"/>
	<path id="path3207" fill="#E11837" stroke="#FFFFFF" stroke-width="1.4173" d="M793.09,1155.828l32.354,7.078l-3.598,17.697
		L793.09,1155.828z"/>
	<path id="path2237" fill="#E11837" stroke="#FFFFFF" stroke-width="1.4173" d="M848.356,1102.294l2.692,5.75l4.493,7.521
		l2.247,13.715l17.522-7.521l16.625-4.428l-7.641-14.154l-8.088-13.719l-16.177,0.887L848.356,1102.294L848.356,1102.294z"/>
	<path id="path13274" fill="none" stroke="#FFFFFF" stroke-width="6.2362" d="M988.065,531.603v27.145l8.567,5.717H983.78
		l-4.286,5.713l12.856,4.286l-5.718,5.714l-2.854,14.286l7.143,10l-1.429,15.714l20,4.286l5.714,11.429l20.001,2.855l10,10
		l-1.429,8.571l4.284,10l10-11.431l8.57,8.57v8.57l-10,2.855l-4.283,14.285l17.143,7.145l12.857,4.284l4.283,11.431l-15.716,12.855
		v17.145l10,10l-7.144,17.145l-17.146,8.569l4.286,4.286l11.431-4.286l7.145,5.716l1.429,8.57l-5.715,5.714l10,17.146v4.285
		l-10,1.43l5.715,7.144v8.571l-8.567,4.285l-14.287-2.856l-4.285,7.146l8.572,4.285l1.428,5.715l-8.571,7.145l14.286,1.43
		l14.285,7.146l11.429-12.855l15.715-2.854l-1.429,10l-14.286,8.569l10,10l-1.429,5.714l-12.856-4.283l-2.854,12.854l11.429,7.146
		l-11.429,2.854l2.854,11.429l2.856,8.571l8.572,5.715l-5.719,10l1.432,7.145l0,0l0,0v1.429"/>
	<path id="path13557" fill="none" stroke="#FFFFFF" stroke-width="6.2362" d="M603.78,451.603l-14.286-11.428l-2.857,8.57
		l7.146,5.716l-12.857,5.714v22.855l8.57,11.431l1.429,10l-7.143,11.429l-8.572-1.429l-8.572,7.142l-1.429,12.857l-15.714,22.857
		l4.286,11.428l-5.716,8.572l7.144,7.145l-7.144,5.714l7.144,1.431v7.145l-5.714,7.141l5.714,5.716l1.429,7.143l5.719,14.286
		l-5.719,1.431v14.283l7.146,10l12.854-1.428v8.571l-2.854,4.283l4.285,7.145l2.854-5.714l17.146,10l-1.433,7.143l-7.143,1.429
		l7.143,11.43l-1.429,17.143l-1.429,11.432l-7.146-1.432l5.717,11.432l-2.855,8.568l-2.857,5.717h-5.714l-7.144,4.283l5.715,11.43
		v12.855l-11.429,12.855l14.284,11.43l2.854,7.146l-7.145,5.714l15.717,21.43v17.143l-2.855,17.146l4.285,10l-5.714,4.283
		l11.429,8.569l2.855,14.286v14.286l-8.57,12.854l-25.714,5.718l-11.431-1.43l-4.284,11.43l-4.285,14.284l11.429,7.146l5.714-2.856
		l7.146,12.856l-5.714,1.428l-10-8.569v10l18.567,5.716l11.433,7.144l-18.573,7.141l-14.286-1.431l-18.571-7.143l-25.714,10
		l-31.429-17.143l-5.715-14.286l-17.146-20l2.859,17.145l-7.145,5.714v1.431l-15.717-1.431l-4.283-7.144l-17.145-22.856
		l-21.429,1.431l-7.144-7.145l-20,1.428l-11.428,5.717v-1.431l-4.286-7.145h-7.143l-5.714-10l2.856-15.715l-8.572-10H316.63
		l-10-8.57l-5.714,8.57l-14.286-2.855l-15.714,1.429l-27.143-21.429l-12.857-1.43l0,0"/>
	<path id="path13840" fill="none" stroke="#FFFFFF" stroke-width="6.2362" d="M441.738,985.888l2.02,32.325l2.021,6.062
		l-14.146,10.103l4.04,10.104l20.96,19.982l15.716-5.716l5.717,7.146l12.854,12.855l5.714,24.285l12.858,12.855l-5.714,1.43
		l-5.715,2.857v7.143h18.568l14.285,11.428l1.431,14.287l11.431,18.57l-10-5.715l-5.715,5.715l7.143,7.143l-2.855,15.715
		l4.284,12.855h12.857l-10,7.145l2.855,11.432l12.854-2.857l8.572,7.146l-1.433,14.285l11.433-7.145l11.428,4.287l-11.428,25.713
		h-11.433l15.716,17.145l7.145,15.715l17.146,8.568l-5.717,17.146l12.857,7.143l-5.714,8.572l2.854,11.428l8.571,7.145l15.715-7.145
		l10,8.572l1.43,30l-20,4.285v15.711h12.855l11.429,5.715l-1.429,15.713l7.145,20l-5.716,10l5.716,25.715l-17.145-15.715l-10-5.713
		l4.286,12.854l12.855,12.855l5.714,5.715h-7.145l-10,11.43v17.146l-12.854,24.285l-5.714,24.285l10,14.285l4.283,24.285l-11.429,20
		l7.146,15.715l-5.717,22.854l8.571,14.285l-1.429,10l2.854,30v1.432"/>
	<path id="path14125" fill="none" stroke="#FFFFFF" stroke-width="6.2362" d="M640.738,1361.666l3.028-12.121l20.202,2.021
		l8.081-10.104l-1.011-11.111l12.121-12.123l2.021-11.107l12.123-3.029l1.012-7.072h11.108l-1.011-13.131l17.173-1.012l7.071-7.07
		l5.051,3.031l-3.029,29.293l18.186,7.07l17.172-5.053l7.07,8.08l5.052-13.131l18.183-7.072l14.146,4.041l14.142,8.082
		l16.163,13.133l18.184,7.07l17.176,8.08l8.08,8.082l7.068,16.162l11.111,22.223l5.051,23.234l9.092,30.305l11.111,15.152
		l15.152,17.172l14.142,19.193l-2.021,16.162l22.224,22.223l12.122,14.143v14.146l-10.104,16.162l-1.011,16.16v37.377l3.03,21.215
		l0,0"/>
	<path id="path14412" fill="none" stroke="#FFFFFF" stroke-width="6.2362" d="M848.065,1324.462l1.429-24.285l-5.714-17.145
		l-12.857-11.43l10-2.855l-7.143-11.428l10-7.146l10-14.285l-5.715-17.145l-7.146-28.57l-2.854-21.43l4.284-15.715l15.716-24.285
		l30-11.428l-7.146-30l-1.427-27.143l10,1.43l8.571-10l1.429-14.285l15.714-21.43l-1.429-12.855l11.429-10l14.286,7.143
		l22.855-4.285l8.569-12.855l8.573-22.857h8.569l-7.145-11.431l11.431-15.714l14.283-2.855v-7.145l5.717-5.714v-11.431l-8.571-2.855
		l-10-12.855l15.716-15.714l14.284,2.854l7.145-11.43l27.146-4.285h1.427"/>
	<path id="path5037" fill="none" stroke="#FFFFFF" stroke-width="6.2362" d="M547.699,577.067l-4.199-3.359l-21.834,2.939
		l-2.519,8.396h-6.302l-4.195-5.877l-15.955-2.521l-9.657-10.496l-4.199,7.138l-10.077-5.878l-3.774,5.458l-10.917-1.26
		l-2.939-12.598l-9.656-3.357l-13.017-2.521l-5.879,4.197l-1.259,0.841l-7.14-5.038l2.101-2.938l-10.917-13.854l-6.028-3.586
		l-4.889-9.432l4.198-11.757l-12.598-3.779l-19.313,2.102l-6.718-9.655l-12.598,3.357l-12.596-9.236l0,0l0,0l0,0"/>
	<path fill="none" stroke="#FFFFFF" stroke-width="6.2362" d="M590.659,747.258l11.113,1.853l5.658-11.483v-4.665l7.626-10.042
		l11.438-12.517l6.354,1.253v-5.008l-8.896-7.509l-1.271-6.257l2.243-5.822l5.167,3.195l10.382-6.133l1.271-7.511l7.626,3.756
		l10.167,13.766l15.251-22.522l12.709-5.008l7.809,4.251l2.362,9.529l11.438,1.251l-1.298,20.244l11.465,17.297v6.258l-7.626,8.761
		l-1.271,7.51l10.167,17.521l7.625,7.509l19.063,10.013l-8.896,2.502l-2.542,8.761l11.382,16.812l1.327,14.476l-5.084,5.006
		c0,0,7.713,20.198,10.167,21.271s15.32,4.333,15.32,4.333l17.722-3.071l3.813-7.51l7.625,8.761l6.354-2.503l5.086,4.991
		l5.081-22.51l12.709,1.252l3.147,5.667l15.917,5.598l-1.269,4.991l10.164,10.025h12.709l10.247-3.229l7.547,0.71l-6.354-21.275
		l-1.271-10.012l8.896-5.006l1.271-16.271l-25.418-17.519l3.813-9.998l10.167-0.016l10.168,8.762l9.737-2.437l8.053-13.818
		l5.342,9.087l6.098-12.858l10.166,8.762l11.438-5.007l13.878-20.366l11.539-4.665l31.776-2.483l8.896,1.252l11.438-7.509
		l15.251,3.754l2.537,7.489l21.418-14.067l16.319-0.608"/>
</g>
</svg>
